<?xml version="1.0" encoding="utf-8"?>
<svg version="1.1" xmlns:xlink="http://www.w3.org/1999/xlink" width="88px" height="81px" xmlns="http://www.w3.org/2000/svg">
  <g transform="matrix(1 0 0 1 -593 -180 )">
    <path d="M 39.6303447890625 52.9572413847656  L 25.5503447890625 39.9972413847656  C 23.9117241171875 38.4889655390625  21.30206890625 38.4889655390625  19.7241378984375 39.9972413847656  C 18.0855172265625 41.5055172304687  18.0855172265625 43.9075862314453  19.7241378984375 45.36  L 36.71724134375 61.0013793076172  C 37.506206890625 61.7275862314453  38.598620671875 62.1186206923828  39.6303447890625 62.1186206923828  C 40.66206890625 62.1186206923828  41.7544826875 61.7275862314453  42.543448234375 61.0013793076172  L 81.3848275625 25.2496551533203  C 83.023448234375 23.7413793076172  83.023448234375 21.3393103066406  81.3848275625 19.8868965380859  C 79.746206890625 18.3786206923828  77.1365516796875 18.3786206923828  75.558620671875 19.8868965380859  L 39.6303447890625 52.9572413847656  Z M 88 40.5  C 88 39.1034483085937  87.9393103359375 37.6510344609375  87.75724134375 36.3103448466797  C 87.6113567959535 34.8187989064575  86.253178685463 33.6761487932636  84.626180157846 33.6761487932636  C 82.889949270248 33.6761487932636  81.4824560406585 34.9716823341358  81.4824560406585 36.5698039465839  C 81.4824560406585 36.6884815043931  81.4903879721052 36.8070466678893  81.506206890625 36.9248276162109  C 81.62758621875 38.097931078125  81.6882758828125 39.3268966171875  81.6882758828125 40.5558620771484  C 81.6882758828125 59.7165517705078  64.7558621015625 75.2462069238281  44 75.2462069238281  C 23.2441378984375 75.2462069238281  6.31172411718749 59.6606896933594  6.31172411718749 40.5558620771484  C 6.31172411718749 21.3951723837891  23.2441378984375 5.86551723046875  44 5.86551723046875  C 51.4041378984375 5.86551723046875  58.626206890625 7.82068961425782  64.7558621015625 11.6193103066406  C 66.2124138671875 12.5131033828125  68.1544827734375 12.122068921875  69.1255172265625 10.7813793076172  C 70.0965516796875 9.44068961425782  69.6717241171875 7.65310346191407  68.2151724375 6.75931030664063  C 61.053793109375 2.29034484667969  52.678620671875 0  44 0  C 19.7241378984375 0  0 18.1551723837891  0 40.5  C 0 62.8448276162109  19.7241378984375 81  44 81  C 68.2758621015625 81  88 62.8448276162109  88 40.5  Z " fill-rule="nonzero" fill="#fd7461" stroke="none" transform="matrix(1 0 0 1 593 180 )" />
  </g>
</svg>