<?xml version="1.0" encoding="utf-8"?>
<svg version="1.1" xmlns:xlink="http://www.w3.org/1999/xlink" width="12px" height="12px" viewBox="1680 242  12 12" xmlns="http://www.w3.org/2000/svg">
  <path d="M 1686 242  C 1689.36 242  1692 244.64  1692 248  C 1692 251.36  1689.36 254  1686 254  C 1682.64 254  1680 251.36  1680 248  C 1680 244.64  1682.64 242  1686 242  Z " fill-rule="nonzero" fill="#f0f0f0" stroke="none" />
  <path d="M 1686 242.5  C 1689.08 242.5  1691.5 244.92  1691.5 248  C 1691.5 251.08  1689.08 253.5  1686 253.5  C 1682.92 253.5  1680.5 251.08  1680.5 248  C 1680.5 244.92  1682.92 242.5  1686 242.5  Z " stroke-width="1" stroke="#797979" fill="none" />
  <path d="M 1686 251  C 1684.32 251  1683 249.68  1683 248  C 1683 246.32  1684.32 245  1686 245  C 1687.68 245  1689 246.32  1689 248  C 1689 249.68  1687.68 251  1686 251  " fill-rule="nonzero" fill="#797979" stroke="none" />
</svg>