<?xml version="1.0" encoding="utf-8"?>
<svg version="1.1" xmlns:xlink="http://www.w3.org/1999/xlink" width="12px" height="12px" viewBox="1774 245  12 12" xmlns="http://www.w3.org/2000/svg">
  <path d="M 1780 245  C 1783.36 245  1786 247.64  1786 251  C 1786 254.36  1783.36 257  1780 257  C 1776.64 257  1774 254.36  1774 251  C 1774 247.64  1776.64 245  1780 245  Z " fill-rule="nonzero" fill="#ffffff" stroke="none" />
  <path d="M 1780 245.5  C 1783.08 245.5  1785.5 247.92  1785.5 251  C 1785.5 254.08  1783.08 256.5  1780 256.5  C 1776.92 256.5  1774.5 254.08  1774.5 251  C 1774.5 247.92  1776.92 245.5  1780 245.5  Z " stroke-width="1" stroke="#797979" fill="none" />
  <path d="M 1780 254  C 1778.32 254  1777 252.68  1777 251  C 1777 249.32  1778.32 248  1780 248  C 1781.68 248  1783 249.32  1783 251  C 1783 252.68  1781.68 254  1780 254  " fill-rule="nonzero" fill="#797979" stroke="none" />
</svg>