<?xml version="1.0" encoding="utf-8"?>
<svg version="1.1" xmlns:xlink="http://www.w3.org/1999/xlink" width="12px" height="12px" viewBox="1892 245  12 12" xmlns="http://www.w3.org/2000/svg">
  <path d="M 1898 245  C 1901.36 245  1904 247.64  1904 251  C 1904 254.36  1901.36 257  1898 257  C 1894.64 257  1892 254.36  1892 251  C 1892 247.64  1894.64 245  1898 245  Z " fill-rule="nonzero" fill="#f0f0f0" stroke="none" />
  <path d="M 1898 245.5  C 1901.08 245.5  1903.5 247.92  1903.5 251  C 1903.5 254.08  1901.08 256.5  1898 256.5  C 1894.92 256.5  1892.5 254.08  1892.5 251  C 1892.5 247.92  1894.92 245.5  1898 245.5  Z " stroke-width="1" stroke="#797979" fill="none" />
  <path d="M 1898 254  C 1896.32 254  1895 252.68  1895 251  C 1895 249.32  1896.32 248  1898 248  C 1899.68 248  1901 249.32  1901 251  C 1901 252.68  1899.68 254  1898 254  " fill-rule="nonzero" fill="#797979" stroke="none" />
</svg>