<?xml version="1.0" encoding="utf-8"?>
<svg version="1.1" xmlns:xlink="http://www.w3.org/1999/xlink" width="12px" height="12px" viewBox="3004 242  12 12" xmlns="http://www.w3.org/2000/svg">
  <path d="M 3010 242  C 3013.36 242  3016 244.64  3016 248  C 3016 251.36  3013.36 254  3010 254  C 3006.64 254  3004 251.36  3004 248  C 3004 244.64  3006.64 242  3010 242  Z " fill-rule="nonzero" fill="#ffffff" stroke="none" />
  <path d="M 3010 242.5  C 3013.08 242.5  3015.5 244.92  3015.5 248  C 3015.5 251.08  3013.08 253.5  3010 253.5  C 3006.92 253.5  3004.5 251.08  3004.5 248  C 3004.5 244.92  3006.92 242.5  3010 242.5  Z " stroke-width="1" stroke="#797979" fill="none" />
  <path d="M 3010 251  C 3008.32 251  3007 249.68  3007 248  C 3007 246.32  3008.32 245  3010 245  C 3011.68 245  3013 246.32  3013 248  C 3013 249.68  3011.68 251  3010 251  " fill-rule="nonzero" fill="#797979" stroke="none" />
</svg>