<?xml version="1.0" encoding="utf-8"?>
<svg version="1.1" xmlns:xlink="http://www.w3.org/1999/xlink" width="12px" height="12px" viewBox="2568 245  12 12" xmlns="http://www.w3.org/2000/svg">
  <path d="M 2574 245  C 2577.36 245  2580 247.64  2580 251  C 2580 254.36  2577.36 257  2574 257  C 2570.64 257  2568 254.36  2568 251  C 2568 247.64  2570.64 245  2574 245  Z " fill-rule="nonzero" fill="#ffffff" stroke="none" />
  <path d="M 2574 245.5  C 2577.08 245.5  2579.5 247.92  2579.5 251  C 2579.5 254.08  2577.08 256.5  2574 256.5  C 2570.92 256.5  2568.5 254.08  2568.5 251  C 2568.5 247.92  2570.92 245.5  2574 245.5  Z " stroke-width="1" stroke="#797979" fill="none" />
  <path d="M 2574 254  C 2572.32 254  2571 252.68  2571 251  C 2571 249.32  2572.32 248  2574 248  C 2575.68 248  2577 249.32  2577 251  C 2577 252.68  2575.68 254  2574 254  " fill-rule="nonzero" fill="#797979" stroke="none" />
</svg>