<?xml version="1.0" encoding="utf-8"?>
<svg version="1.1" xmlns:xlink="http://www.w3.org/1999/xlink" width="12px" height="12px" viewBox="1892 241  12 12" xmlns="http://www.w3.org/2000/svg">
  <path d="M 1898 241  C 1901.36 241  1904 243.64  1904 247  C 1904 250.36  1901.36 253  1898 253  C 1894.64 253  1892 250.36  1892 247  C 1892 243.64  1894.64 241  1898 241  Z " fill-rule="nonzero" fill="#ffffff" stroke="none" />
  <path d="M 1898 241.5  C 1901.08 241.5  1903.5 243.92  1903.5 247  C 1903.5 250.08  1901.08 252.5  1898 252.5  C 1894.92 252.5  1892.5 250.08  1892.5 247  C 1892.5 243.92  1894.92 241.5  1898 241.5  Z " stroke-width="1" stroke="#797979" fill="none" />
  <path d="M 1898 250  C 1896.32 250  1895 248.68  1895 247  C 1895 245.32  1896.32 244  1898 244  C 1899.68 244  1901 245.32  1901 247  C 1901 248.68  1899.68 250  1898 250  " fill-rule="nonzero" fill="#797979" stroke="none" />
</svg>