<?xml version="1.0" encoding="utf-8"?>
<svg version="1.1" xmlns:xlink="http://www.w3.org/1999/xlink" width="12px" height="12px" viewBox="2450 245  12 12" xmlns="http://www.w3.org/2000/svg">
  <path d="M 2456 245  C 2459.36 245  2462 247.64  2462 251  C 2462 254.36  2459.36 257  2456 257  C 2452.64 257  2450 254.36  2450 251  C 2450 247.64  2452.64 245  2456 245  Z " fill-rule="nonzero" fill="#f0f0f0" stroke="none" />
  <path d="M 2456 245.5  C 2459.08 245.5  2461.5 247.92  2461.5 251  C 2461.5 254.08  2459.08 256.5  2456 256.5  C 2452.92 256.5  2450.5 254.08  2450.5 251  C 2450.5 247.92  2452.92 245.5  2456 245.5  Z " stroke-width="1" stroke="#797979" fill="none" />
  <path d="M 2456 254  C 2454.32 254  2453 252.68  2453 251  C 2453 249.32  2454.32 248  2456 248  C 2457.68 248  2459 249.32  2459 251  C 2459 252.68  2457.68 254  2456 254  " fill-rule="nonzero" fill="#797979" stroke="none" />
</svg>