<?xml version="1.0" encoding="utf-8"?>
<svg version="1.1" xmlns:xlink="http://www.w3.org/1999/xlink" width="12px" height="12px" viewBox="1774 242  12 12" xmlns="http://www.w3.org/2000/svg">
  <path d="M 1780 242  C 1783.36 242  1786 244.64  1786 248  C 1786 251.36  1783.36 254  1780 254  C 1776.64 254  1774 251.36  1774 248  C 1774 244.64  1776.64 242  1780 242  Z " fill-rule="nonzero" fill="#f0f0f0" stroke="none" />
  <path d="M 1780 242.5  C 1783.08 242.5  1785.5 244.92  1785.5 248  C 1785.5 251.08  1783.08 253.5  1780 253.5  C 1776.92 253.5  1774.5 251.08  1774.5 248  C 1774.5 244.92  1776.92 242.5  1780 242.5  Z " stroke-width="1" stroke="#797979" fill="none" />
  <path d="M 1780 251  C 1778.32 251  1777 249.68  1777 248  C 1777 246.32  1778.32 245  1780 245  C 1781.68 245  1783 246.32  1783 248  C 1783 249.68  1781.68 251  1780 251  " fill-rule="nonzero" fill="#797979" stroke="none" />
</svg>