<?xml version="1.0" encoding="utf-8"?>
<svg version="1.1" xmlns:xlink="http://www.w3.org/1999/xlink" width="21px" height="20px" preserveAspectRatio="xMinYMid meet" viewBox="1526 378  21 18" xmlns="http://www.w3.org/2000/svg">
  <path d="M 1539 387  L 1591 387  L 1591 406  L 1644 406  " stroke-width="2" stroke-dasharray="6,2" stroke="#000000" fill="none" />
  <path d="M 1536.5 383.5  A 3.5 3.5 0 0 0 1533 387 A 3.5 3.5 0 0 0 1536.5 390.5 A 3.5 3.5 0 0 0 1540 387 A 3.5 3.5 0 0 0 1536.5 383.5 Z M 1536.5 385.5  A 1.5 1.5 0 0 1 1538 387 A 1.5 1.5 0 0 1 1536.5 388.5 A 1.5 1.5 0 0 1 1535 387 A 1.5 1.5 0 0 1 1536.5 385.5 Z M 1643 413.6  L 1650 406  L 1643 398.4  L 1643 413.6  Z M 1645 408.8  L 1645 403.2  L 1647 406  L 1645 408.8  Z " fill-rule="nonzero" fill="#000000" stroke="none" />
</svg>