<?xml version="1.0" encoding="utf-8"?>
<svg version="1.1" xmlns:xlink="http://www.w3.org/1999/xlink" width="38px" height="39px" xmlns="http://www.w3.org/2000/svg">
  <g transform="matrix(1 0 0 1 -136 -1414 )">
    <path d="M 155 1414.5  C 165.36 1414.5  173.5 1422.86  173.5 1433.5  C 173.5 1444.14  165.36 1452.5  155 1452.5  C 144.64 1452.5  136.5 1444.14  136.5 1433.5  C 136.5 1422.86  144.64 1414.5  155 1414.5  Z " fill-rule="nonzero" fill="#f3f3f3" stroke="none" />
    <path d="M 155 1414.5  C 165.36 1414.5  173.5 1422.86  173.5 1433.5  C 173.5 1444.14  165.36 1452.5  155 1452.5  C 144.64 1452.5  136.5 1444.14  136.5 1433.5  C 136.5 1422.86  144.64 1414.5  155 1414.5  Z " stroke-width="1" stroke="#000000" fill="none" stroke-opacity="0.0470588235294118" />
  </g>
</svg>