<?xml version="1.0" encoding="utf-8"?>
<svg version="1.1" xmlns:xlink="http://www.w3.org/1999/xlink" width="55px" height="17px" xmlns="http://www.w3.org/2000/svg">
  <g transform="matrix(1 0 0 1 -345 -1507 )">
    <path d="M 15.6309496567506 4.29486995238425  L 14.0763501144165 4.29486995238425  L 14.0763501144165 6.87540093151192  L 15.6309496567506 6.87540093151192  L 15.6309496567506 4.29486995238425  Z M 19.3445928680397 4.3889915921226  L 19.3445928680397 6.95067582576335  L 20.9361317696415 6.95067582576335  L 20.9361317696415 4.3889915921226  L 19.3446033562166 4.3889915921226  Z M 13.9160068649886 13.957854165222  L 21.0348360030511 13.957854165222  L 21.0348360030511 7.70425741973511  L 13.9160068649886 7.70425741973511  L 13.9160068649886 13.95787017775  Z M 15.4088520213577 9.53135091764325  L 19.6036298627002 9.45593191063958  L 19.6036298627002 10.1341105101357  L 15.4088520213577 10.1341105101357  L 15.4088520213577 9.53136693017128  Z M 15.2977927154844 12.2437290525391  L 15.4088520213577 11.6034200818251  L 19.6036298627002 11.6034200818251  L 19.6036298627002 12.4698419607979  L 15.2977927154844 12.2437290525391  Z M 13.2251086956522 14.4287505894182  L 13.2251086956522 16.2935696033562  L 21.676429252479 16.2935696033562  L 21.676429252479 14.4287505894182  L 13.2251086956522 14.4287505894182  Z M 16.5808953089245 7.384038884266  L 18.2218440122044 7.384038884266  L 18.3205377574371 3.71097311790676  L 21.466676201373 3.71097311790676  L 21.466676201373 1.92142899822019  L 18.3205377574371 1.99684800522386  L 18.3205377574371 0.621836211081063  L 16.9387414187643 0.621836211081063  L 16.8894469870328 1.92160513602848  L 13.4348512585812 1.92160513602848  L 13.4348512585812 3.78642414996649  L 16.6302946224256 3.8805297771768  L 16.5808953089245 7.38405489679403  Z M 29.5293363844394 5.33080045304302  C 29.6074103737605 5.14241306081409  29.6588653699466 5.01695490372836  29.6835650266972 4.95400965605714  C 29.9137175819985 4.9163001525553  30.207879481312 4.89449108938354  30.5657360793288 4.88808607817303  C 30.9234877955759 4.88185720477082  31.3449132341724 4.87875077433373  31.830358504958 4.87875077433373  L 31.830358504958 3.03281053093868  C 31.6164206712433 3.08313790652521  31.3819679633867 3.11758085430969  31.1271052631579 3.13642759979659  C 30.8720327993898 3.15529035781153  30.5882856598017 3.16464167417886  30.2757589626239 3.16464167417886  C 30.2921939359268 2.95130676328503  30.3147435163997 2.76602580149319  30.3436384439359 2.6089429015556  C 30.3724180015255 2.45202012689827  30.4073226544622 2.33576917342764  30.4484572845156 2.26051029170423  L 30.4731569412662 1.97800125973696  L 31.2998035850496 1.97800125973696  L 31.2011098398169 0.301585650555903  L 26.5621157513349 0.376844532279315  L 26.5621157513349 2.01556665048656  L 29.0173665141114 2.26036617895199  C 28.9186727688787 2.41104406767908  28.8403680396644 2.69995811085685  28.7829138062548 3.12677204539676  L 25.5133714721587 3.03265040565842  L 25.4639721586575 4.87860666158149  C 25.6695299389779 4.85353104269237  25.9800114416476 4.85679759840973  26.3954271548436 4.88795797794883  C 26.810748474447 4.91943860804845  27.3269031273837 4.96649942791762  27.943796720061 5.02930056283661  L 27.3763129290618 6.08410983403833  L 23.7984181922197 6.21594097727851  C 23.7571786803967 6.52994665187343  23.7244241037376 6.79359292582576  23.699724446987 7.00708796199986  C 23.6750247902365 7.22074312345422  23.6626697177727 7.38387875898574  23.6626697177727 7.49686315673902  C 23.6626697177727 7.57228216374269  23.658474446987 7.64754104546611  23.6503146453089 7.72296005246978  C 23.6420499618612 7.79839507200148  23.6296948893974 7.86742508032268  23.6132704042716 7.93022621524166  C 24.0409258199848 7.89251671173982  24.4809467963387 7.85480720823799  24.9334172387491 7.81725783001641  C 25.3856674294432 7.77953231398655  25.858768115942 7.74838794697548  26.3522578184592 7.72313619027807  C 25.6448302822273 8.72792232392576  25.023846300534 9.56286357279893  24.4893163615561 10.2284082876823  C 23.9545766590389 10.894113127846  23.4940512967201 11.3901171959873  23.1075200228833 11.7164204921064  L 23.7491237604882 13.3551105852576  C 24.4481817315027 12.6016891165661  24.999251525553 12.0115634086864  25.4024275362319 11.5845893488662  C 25.8053832951945 11.1577754143263  26.0727059496568 10.8626324977463  26.2043745232647 10.6993207244065  L 26.2043745232647 16.1053583489356  L 31.7316542715485 16.1807773559393  L 31.7316542715485 8.51426716247139  L 27.8699075133486 8.51426716247139  C 27.8946176582761 8.38882501791369  28.0796710526316 8.14402548944826  28.425057208238 7.77969243926681  C 29.1653651792525 7.72966930171278  29.8849380244089 7.6949221158958  30.5842057589626 7.67605935788087  C 31.2832637299771 7.65719659986593  31.9660020976354 7.64786129602663  32.6323054919909 7.64786129602663  L 32.755709382151 6.08441407207082  L 29.2024199084668 6.08441407207082  C 29.3421434019832 5.77058453528419  29.4511470251716 5.519219870328  29.5293363844394 5.33081646557104  Z M 27.6848646071701 12.6203437117167  L 27.6848646071701 11.923478492014  L 30.3004586193745 11.923478492014  L 30.3004586193745 12.6203437117167  L 27.6848646071701 12.6203437117167  Z M 30.3991628527841 13.9766848981809  L 30.3991628527841 14.5417189746435  L 27.6848646071701 14.5417189746435  L 27.635465293669 13.9766848981809  L 30.3991628527841 13.9766848981809  Z M 27.7341590389016 10.0022633543675  L 30.3498684210526 10.0022633543675  L 30.3004691075515 10.7745475810739  L 27.6848646071701 10.6991285740702  L 27.7341590389016 10.0022633543675  Z M 39.640085812357 10.755700835587  C 40.3062843249428 10.7179753195571  40.8511136536995 10.6868309525461  41.2748045385202 10.6615791958486  C 41.6983905415713 10.6364875644315  42.0045718916857 10.6238696923468  42.1939254385965 10.6238696923468  L 42.5023827231121 3.63552208584703  L 42.5023827231121 3.56010307884335  L 40.1705253623188 3.4471346936181  L 40.022432303585 2.07210688694727  L 42.6503709000763 2.03438137091741  L 42.6503709000763 0.471126297297922  L 35.457432303585 0.62180418602501  L 35.3094441266209 2.18526742250884  L 38.3814836003051 2.18526742250884  L 38.4307780320366 3.24006068118254  L 35.5683762395118 3.56029522917967  L 35.6176706712433 10.3225139148926  L 38.0729214340198 10.755716848115  L 37.8138739511823 11.8105261193167  L 36.3579786422578 11.0570886380972  L 36.0248217009916 12.4698419607979  L 37.1228709000763 13.4116668342464  L 36.2098750953471 14.9373885421723  L 37.1721653318078 16.0299233294039  L 38.3812738367658 14.2592259552042  L 43.09426201373 16.5760946478515  L 43.5507074752098 15.0880824434274  L 39.1708762395118 12.7523509927652  L 39.6400963005339 10.755716848115  Z M 40.1953299008391 5.38737271455978  L 40.9972873760488 5.38737271455978  L 40.9972873760488 6.36692310403809  L 40.195340389016 6.36692310403809  L 40.195340389016 5.38737271455978  Z M 39.9486479786422 8.9849874488593  L 40.0226420671243 8.13744434042947  L 40.9356378718535 8.13744434042947  L 40.8369441266209 8.90972856713589  L 39.9486479786422 8.9849874488593  Z M 36.8641485507246 4.8787347618057  L 38.5050972540046 4.8787347618057  L 38.5050972540046 6.21606907750271  L 36.8641485507246 6.21606907750271  L 36.8641485507246 4.87876678686175  Z M 38.5296920289855 9.15456012065737  L 36.9750924866514 9.15456012065737  L 36.9750924866514 7.81722580496036  L 38.5296920289855 7.81722580496036  L 38.5296920289855 9.15454410812935  Z M 54.9884734935164 9.39918351131451  L 54.5811127002288 8.68363167140513  L 51.8915141113654 8.13744434042947  L 52.125966819222 7.36516011372304  L 50.7934649122807 7.25219172849779  C 50.8674590007628 7.18955071885907  50.9517734553776 7.12674958394009  51.0463872997712 7.06378832374084  C 51.1408962623951 7.00114731410212  51.2539902745995 6.91949943369623  51.3856588482075 6.81898879527541  C 51.4350581617086 6.76896565772138  51.5007980549199 6.70600439752213  51.5830673150267 6.63058539051845  C 51.6487862318841 6.56794438087973  51.7331006864989 6.49252537387606  51.8359897025172 6.40447248225967  C 51.9387738367658 6.3167398412038  52.0600171624714 6.21606907750271  52.199960907704 6.10310069227747  C 52.528817696415 5.68874450454198  52.9812881388253 5.05468041975822  53.5571624713959 4.20057217483762  C 53.6968859649123 3.94954377296997  53.8141647597254 3.67963660055937  53.908789092296 3.39056243210133  C 54.0032980549199 3.10182452673185  54.083417238749 2.7942078508194  54.1493564073227 2.46760031666782  L 53.7916046910755 1.73300958093521  L 51.0526172768879 1.22438764070915  L 51.2747254004577 0.433240655987795  L 49.966923150267 0.357821648984119  L 48.8935736079329 1.99651174213531  C 48.5069374523265 2.57416369068257  48.118266590389 3.08608421168204  47.7276554157132 3.53158476642859  C 47.3369393592677 3.97740557173566  46.9318335240275 4.38241044310381  46.5124323035851 4.74658336800499  L 46.5124323035851 5.36818970598433  L 47.3390894355454 5.63185199246469  L 48.0299876048818 4.97253615098352  L 49.5598770022883 6.19688606892726  L 46.7961899313501 8.0994145863671  L 47.4130835240275 9.26719224279407  L 47.4624828375286 9.26719224279407  C 48.0299876048818 8.99107220950928  48.5871720061022 8.68970041952708  49.1342562929062 8.36307687284747  C 49.6837960949805 8.03505132216107  50.2288195879776 7.6896561753737  50.7689750190694 7.32711434713265  L 49.6956359649123 8.92827107459029  C 49.3501344393593 9.4810075295287  48.9800276506484 9.98308034579201  48.5852316933639 10.4351300245013  C 48.1904357360793 10.8871957157386  47.783284706331 11.2954831553521  47.363778604119 11.6594959549731  L 47.363778604119 12.3188117964542  L 48.153381006865 12.5636113249197  L 48.8689893211289 11.9420049869403  L 50.3618344774981 13.1097986558953  L 47.5858867276888 15.0123111608071  L 48.2520852402746 16.1989515752491  L 48.2767848970252 16.1235325682454  C 48.9923932112891 15.8221447657351  49.6728661327231 15.4704456001664  50.3186546529367 15.0687232970437  C 50.9631583646581 14.6678239215987  51.5914467491373 14.2086626731254  52.2001811594203 13.6936794778448  L 52.2495804729214 13.6936794778448  L 53.4833781464531 12.3563611746758  C 53.5820718916857 12.2182851455054  53.6684315408085 12.1020341920348  53.7424256292906 12.0079285648244  C 53.8164197177727 11.9138069250861  53.8738844393593 11.8354256003976  53.9151239511823 11.7724643401983  C 54.02198798627 11.6344043235559  54.1083371472159 11.5058557485611  54.1741714340198 11.3863222268451  C 54.2388928932444 11.268769436741  54.3046952451068 11.1526137212004  54.3715589244851 11.0378896169937  C 54.6346967963387 10.5984578103691  54.8403699466056 10.0522704793935  54.9884734935164 9.39918351131451  Z M 49.1278165522502 3.8050947576451  L 50.275265064836 2.46776044194808  L 52.1505511060259 3.07050402191249  C 52.1093220823799 3.17117478561357  52.0765570175439 3.24004466865451  52.0518573607933 3.27775417215635  L 52.0148026315789 3.33432643367312  C 51.9901029748284 3.4850043224002  51.9242686880244 3.64208722233779  51.8174151411137 3.80525488292536  C 51.6610364225782 4.08153504149042  51.5047625858124 4.31698325358852  51.3486146071701 4.51161553174768  C 51.1922358886346 4.70640793518711  51.023617467582 4.86004814159906  50.8427698321892 4.9731926646326  L 49.1278165522502 3.80507874511707  Z M 52.9647482837529 9.98340059635254  C 52.9236136536995 10.0463618565518  52.8908590770404 10.1340784850796  52.8661594202899 10.2470628828329  C 52.8002097635393 10.347749659062  52.7509153318078 10.432519982433  52.7180558733791 10.5013738529459  C 52.6854221047323 10.5698279962075  52.6565411930893 10.6422739557331  52.6317067124332 10.7179753195571  C 52.3026401601831 11.2956432806324  51.9859181922197 11.7039307202459  51.6816561784897 11.9423412500289  L 49.9667133867277 10.7179753195571  L 51.0524075133486 9.39950376187504  L 52.9647482837529 9.98340059635254  Z M 4.36447654462243 3.24203022212977  L 4.36447654462243 6.08606336245753  L 0 6.08606336245753  L 0 11.3871548783025  L 4.36447654462243 11.3871548783025  L 4.36447654462243 14.231011880822  L 9.25532322654462 8.73660111411599  L 4.36447654462243 3.24203022212977  Z " fill-rule="nonzero" fill="#333333" stroke="none" transform="matrix(1 0 0 1 345 1507 )" />
  </g>
</svg>