<?xml version="1.0" encoding="utf-8"?>
<svg version="1.1" xmlns:xlink="http://www.w3.org/1999/xlink" width="258px" height="84px" xmlns="http://www.w3.org/2000/svg">
  <g transform="matrix(1 0 0 1 -133 -1337 )">
    <path d="M 133 1337  L 391 1337  L 391 1421  L 133 1421  L 133 1337  " fill-rule="nonzero" fill="#cccccc" stroke="none" />
    <path d="M 139 1343  L 385 1343  L 385 1415  L 139 1415  L 139 1343  " fill-rule="nonzero" fill="#ffffff" stroke="none" />
    <path d="M 273.46 1362.2  C 269.932 1362.2  267.16 1359.428  267.16 1355.9  C 267.16 1352.372  269.932 1349.6  273.46 1349.6  C 276.988 1349.6  279.76 1352.372  279.76 1355.9  C 279.76 1359.428  276.988 1362.2  273.46 1362.2  " fill-rule="nonzero" fill="#cccccc" stroke="none" />
    <path d="M 141 1413  L 141 1375.6  L 201.5 1358.6  L 286.2 1399.71627906977  L 334.6 1368.8  L 383 1399.71627906977  L 383 1413  L 141 1413  " fill-rule="nonzero" fill="#169bd5" stroke="none" />
  </g>
</svg>