<?xml version="1.0" encoding="utf-8"?>
<svg version="1.1" xmlns:xlink="http://www.w3.org/1999/xlink" width="346px" height="132px" xmlns="http://www.w3.org/2000/svg">
  <g transform="matrix(1 0 0 1 -602 -1973 )">
    <path d="M 602 1973  L 948 1973  L 948 2105  L 602 2105  L 602 1973  " fill-rule="nonzero" fill="#cccccc" stroke="none" />
    <path d="M 611 1982  L 939 1982  L 939 2096  L 611 2096  L 611 1982  " fill-rule="nonzero" fill="#ffffff" stroke="none" />
    <path d="M 791.82 2012.6  C 786.276 2012.6  781.92 2008.244  781.92 2002.7  C 781.92 1997.156  786.276 1992.8  791.82 1992.8  C 797.364 1992.8  801.72 1997.156  801.72 2002.7  C 801.72 2008.244  797.364 2012.6  791.82 2012.6  " fill-rule="nonzero" fill="#cccccc" stroke="none" />
    <path d="M 615 2093  L 615 2034.15  L 695.25 2007.4  L 807.6 2068.50751445087  L 871.8 2023.45  L 936 2068.50751445087  L 936 2093  L 615 2093  " fill-rule="nonzero" fill="#169bd5" stroke="none" />
  </g>
</svg>