<?xml version="1.0" encoding="utf-8"?>
<svg version="1.1" xmlns:xlink="http://www.w3.org/1999/xlink" width="50px" height="14px" xmlns="http://www.w3.org/2000/svg">
  <g transform="matrix(1 0 0 1 -1500 -1035 )">
    <path d="M 49.0056818181818 1.02083333333333  C 49.6685606060606 1.70138888888888  50 2.52777777777778  50 3.5  L 50 10.5  C 50 11.4722222222222  49.6685606060606 12.2986111111111  49.0056818181818 12.9791666666667  C 48.342803030303 13.6597222222222  47.5378787878788 14  46.5909090909091 14  L 3.40909090909091 14  C 2.46212121212121 14  1.65719696969697 13.6597222222222  0.994318181818182 12.9791666666667  C 0.331439393939394 12.2986111111111  0 11.4722222222222  0 10.5  L 0 3.5  C 0 2.52777777777778  0.331439393939394 1.70138888888888  0.994318181818182 1.02083333333333  C 1.65719696969697 0.340277777777775  2.46212121212121 0  3.40909090909091 0  L 46.5909090909091 0  C 47.5378787878788 0  48.342803030303 0.340277777777775  49.0056818181818 1.02083333333333  Z " fill-rule="nonzero" fill="#000000" stroke="none" transform="matrix(1 0 0 1 1500 1035 )" />
  </g>
</svg>