<?xml version="1.0" encoding="utf-8"?>
<svg version="1.1" xmlns:xlink="http://www.w3.org/1999/xlink" width="8px" height="8px" xmlns="http://www.w3.org/2000/svg">
  <g transform="matrix(1 0 0 1 -235 -1140 )">
    <path d="M 239 1140  C 241.24 1140  243 1141.76  243 1144  C 243 1146.24  241.24 1148  239 1148  C 236.76 1148  235 1146.24  235 1144  C 235 1141.76  236.76 1140  239 1140  Z " fill-rule="nonzero" fill="#0000ff" stroke="none" />
    <path d="M 239 1140.5  C 240.96 1140.5  242.5 1142.04  242.5 1144  C 242.5 1145.96  240.96 1147.5  239 1147.5  C 237.04 1147.5  235.5 1145.96  235.5 1144  C 235.5 1142.04  237.04 1140.5  239 1140.5  Z " stroke-width="1" stroke="#797979" fill="none" />
  </g>
</svg>