<?xml version="1.0" encoding="utf-8"?>
<svg version="1.1" xmlns:xlink="http://www.w3.org/1999/xlink" width="361px" height="141px" xmlns="http://www.w3.org/2000/svg">
  <g transform="matrix(1 0 0 1 -74 -1012 )">
    <path d="M 74 1012  L 435 1012  L 435 1153  L 74 1153  L 74 1012  " fill-rule="nonzero" fill="#cccccc" stroke="none" />
    <path d="M 84 1022  L 425 1022  L 425 1143  L 84 1143  L 84 1022  " fill-rule="nonzero" fill="#ffffff" stroke="none" />
    <path d="M 272.295 1054.3  C 266.373 1054.3  261.72 1049.647  261.72 1043.725  C 261.72 1037.803  266.373 1033.15  272.295 1033.15  C 278.217 1033.15  282.87 1037.803  282.87 1043.725  C 282.87 1049.647  278.217 1054.3  272.295 1054.3  " fill-rule="nonzero" fill="#cccccc" stroke="none" />
    <path d="M 88 1140  L 88 1077.3  L 171.5 1048.8  L 288.4 1113.28421052632  L 355.2 1065.9  L 422 1113.28421052632  L 422 1140  L 88 1140  " fill-rule="nonzero" fill="#169bd5" stroke="none" />
  </g>
</svg>