<?xml version="1.0" encoding="utf-8"?>
<svg version="1.1" xmlns:xlink="http://www.w3.org/1999/xlink" width="12px" height="12px" xmlns="http://www.w3.org/2000/svg">
  <g transform="matrix(1 0 0 1 -238 -1417 )">
    <path d="M 244 1417  C 247.36 1417  250 1419.64  250 1423  C 250 1426.36  247.36 1429  244 1429  C 240.64 1429  238 1426.36  238 1423  C 238 1419.64  240.64 1417  244 1417  Z " fill-rule="nonzero" fill="#000000" stroke="none" />
    <path d="M 244 1417.5  C 247.08 1417.5  249.5 1419.92  249.5 1423  C 249.5 1426.08  247.08 1428.5  244 1428.5  C 240.92 1428.5  238.5 1426.08  238.5 1423  C 238.5 1419.92  240.92 1417.5  244 1417.5  Z " stroke-width="1" stroke="#797979" fill="none" />
  </g>
</svg>