<?xml version="1.0" encoding="utf-8"?>
<svg version="1.1" xmlns:xlink="http://www.w3.org/1999/xlink" width="12px" height="12px" xmlns="http://www.w3.org/2000/svg">
  <g transform="matrix(1 0 0 1 -254 -1417 )">
    <path d="M 260 1417  C 263.36 1417  266 1419.64  266 1423  C 266 1426.36  263.36 1429  260 1429  C 256.64 1429  254 1426.36  254 1423  C 254 1419.64  256.64 1417  260 1417  Z " fill-rule="nonzero" fill="#ffffff" stroke="none" />
    <path d="M 260 1417.5  C 263.08 1417.5  265.5 1419.92  265.5 1423  C 265.5 1426.08  263.08 1428.5  260 1428.5  C 256.92 1428.5  254.5 1426.08  254.5 1423  C 254.5 1419.92  256.92 1417.5  260 1417.5  Z " stroke-width="1" stroke="#797979" fill="none" />
  </g>
</svg>