<?xml version="1.0" encoding="utf-8"?>
<svg version="1.1" xmlns:xlink="http://www.w3.org/1999/xlink" width="12px" height="12px" viewBox="1872 1270  12 12" xmlns="http://www.w3.org/2000/svg">
  <path d="M 1878 1270  C 1881.36 1270  1884 1272.64  1884 1276  C 1884 1279.36  1881.36 1282  1878 1282  C 1874.64 1282  1872 1279.36  1872 1276  C 1872 1272.64  1874.64 1270  1878 1270  Z " fill-rule="nonzero" fill="#f0f0f0" stroke="none" />
  <path d="M 1878 1270.5  C 1881.08 1270.5  1883.5 1272.92  1883.5 1276  C 1883.5 1279.08  1881.08 1281.5  1878 1281.5  C 1874.92 1281.5  1872.5 1279.08  1872.5 1276  C 1872.5 1272.92  1874.92 1270.5  1878 1270.5  Z " stroke-width="1" stroke="#797979" fill="none" />
  <path d="M 1878 1279  C 1876.32 1279  1875 1277.68  1875 1276  C 1875 1274.32  1876.32 1273  1878 1273  C 1879.68 1273  1881 1274.32  1881 1276  C 1881 1277.68  1879.68 1279  1878 1279  " fill-rule="nonzero" fill="#797979" stroke="none" />
</svg>