<?xml version="1.0" encoding="utf-8"?>
<svg version="1.1" xmlns:xlink="http://www.w3.org/1999/xlink" width="12px" height="12px" viewBox="2227 1292  12 12" xmlns="http://www.w3.org/2000/svg">
  <path d="M 2233 1292  C 2236.36 1292  2239 1294.64  2239 1298  C 2239 1301.36  2236.36 1304  2233 1304  C 2229.64 1304  2227 1301.36  2227 1298  C 2227 1294.64  2229.64 1292  2233 1292  Z " fill-rule="nonzero" fill="#ffffff" stroke="none" />
  <path d="M 2233 1292.5  C 2236.08 1292.5  2238.5 1294.92  2238.5 1298  C 2238.5 1301.08  2236.08 1303.5  2233 1303.5  C 2229.92 1303.5  2227.5 1301.08  2227.5 1298  C 2227.5 1294.92  2229.92 1292.5  2233 1292.5  Z " stroke-width="1" stroke="#797979" fill="none" />
  <path d="M 2233 1301  C 2231.32 1301  2230 1299.68  2230 1298  C 2230 1296.32  2231.32 1295  2233 1295  C 2234.68 1295  2236 1296.32  2236 1298  C 2236 1299.68  2234.68 1301  2233 1301  " fill-rule="nonzero" fill="#797979" stroke="none" />
</svg>