<?xml version="1.0" encoding="utf-8"?>
<svg version="1.1" xmlns:xlink="http://www.w3.org/1999/xlink" width="12px" height="12px" viewBox="1790 500  12 12" xmlns="http://www.w3.org/2000/svg">
  <path d="M 1796 500  C 1799.36 500  1802 502.64  1802 506  C 1802 509.36  1799.36 512  1796 512  C 1792.64 512  1790 509.36  1790 506  C 1790 502.64  1792.64 500  1796 500  Z " fill-rule="nonzero" fill="#ffffff" stroke="none" />
  <path d="M 1796 500.5  C 1799.08 500.5  1801.5 502.92  1801.5 506  C 1801.5 509.08  1799.08 511.5  1796 511.5  C 1792.92 511.5  1790.5 509.08  1790.5 506  C 1790.5 502.92  1792.92 500.5  1796 500.5  Z " stroke-width="1" stroke="#797979" fill="none" />
  <path d="M 1796 509  C 1794.32 509  1793 507.68  1793 506  C 1793 504.32  1794.32 503  1796 503  C 1797.68 503  1799 504.32  1799 506  C 1799 507.68  1797.68 509  1796 509  " fill-rule="nonzero" fill="#797979" stroke="none" />
</svg>