<?xml version="1.0" encoding="utf-8"?>
<svg version="1.1" xmlns:xlink="http://www.w3.org/1999/xlink" width="12px" height="12px" viewBox="1905 500  12 12" xmlns="http://www.w3.org/2000/svg">
  <path d="M 1911 500  C 1914.36 500  1917 502.64  1917 506  C 1917 509.36  1914.36 512  1911 512  C 1907.64 512  1905 509.36  1905 506  C 1905 502.64  1907.64 500  1911 500  Z " fill-rule="nonzero" fill="#ffffff" stroke="none" />
  <path d="M 1911 500.5  C 1914.08 500.5  1916.5 502.92  1916.5 506  C 1916.5 509.08  1914.08 511.5  1911 511.5  C 1907.92 511.5  1905.5 509.08  1905.5 506  C 1905.5 502.92  1907.92 500.5  1911 500.5  Z " stroke-width="1" stroke="#797979" fill="none" />
  <path d="M 1911 509  C 1909.32 509  1908 507.68  1908 506  C 1908 504.32  1909.32 503  1911 503  C 1912.68 503  1914 504.32  1914 506  C 1914 507.68  1912.68 509  1911 509  " fill-rule="nonzero" fill="#797979" stroke="none" />
</svg>