<?xml version="1.0" encoding="utf-8"?>
<svg version="1.1" xmlns:xlink="http://www.w3.org/1999/xlink" width="12px" height="12px" viewBox="2298 481  12 12" xmlns="http://www.w3.org/2000/svg">
  <path d="M 2304 481  C 2307.36 481  2310 483.64  2310 487  C 2310 490.36  2307.36 493  2304 493  C 2300.64 493  2298 490.36  2298 487  C 2298 483.64  2300.64 481  2304 481  Z " fill-rule="nonzero" fill="#ffffff" stroke="none" />
  <path d="M 2304 481.5  C 2307.08 481.5  2309.5 483.92  2309.5 487  C 2309.5 490.08  2307.08 492.5  2304 492.5  C 2300.92 492.5  2298.5 490.08  2298.5 487  C 2298.5 483.92  2300.92 481.5  2304 481.5  Z " stroke-width="1" stroke="#797979" fill="none" />
  <path d="M 2304 490  C 2302.32 490  2301 488.68  2301 487  C 2301 485.32  2302.32 484  2304 484  C 2305.68 484  2307 485.32  2307 487  C 2307 488.68  2305.68 490  2304 490  " fill-rule="nonzero" fill="#797979" stroke="none" />
</svg>