<?xml version="1.0" encoding="utf-8"?>
<svg version="1.1" xmlns:xlink="http://www.w3.org/1999/xlink" width="12px" height="12px" viewBox="1757 1270  12 12" xmlns="http://www.w3.org/2000/svg">
  <path d="M 1763 1270  C 1766.36 1270  1769 1272.64  1769 1276  C 1769 1279.36  1766.36 1282  1763 1282  C 1759.64 1282  1757 1279.36  1757 1276  C 1757 1272.64  1759.64 1270  1763 1270  Z " fill-rule="nonzero" fill="#f0f0f0" stroke="none" />
  <path d="M 1763 1270.5  C 1766.08 1270.5  1768.5 1272.92  1768.5 1276  C 1768.5 1279.08  1766.08 1281.5  1763 1281.5  C 1759.92 1281.5  1757.5 1279.08  1757.5 1276  C 1757.5 1272.92  1759.92 1270.5  1763 1270.5  Z " stroke-width="1" stroke="#797979" fill="none" />
  <path d="M 1763 1279  C 1761.32 1279  1760 1277.68  1760 1276  C 1760 1274.32  1761.32 1273  1763 1273  C 1764.68 1273  1766 1274.32  1766 1276  C 1766 1277.68  1764.68 1279  1763 1279  " fill-rule="nonzero" fill="#797979" stroke="none" />
</svg>