<?xml version="1.0" encoding="utf-8"?>
<svg version="1.1" xmlns:xlink="http://www.w3.org/1999/xlink" width="25px" height="32px" xmlns="http://www.w3.org/2000/svg">
  <g transform="matrix(1 0 0 1 -352 -129 )">
    <path d="M 24.5704467353952 1.92384769539078  C 24.8568155784651 2.1376085504342  25 2.38343353373413  25 2.66132264529058  C 25 2.93921175684703  24.8568155784651 3.18503674014696  24.5704467353952 3.39879759519038  L 7.68900343642612 16  L 24.5704467353952 28.6012024048096  C 24.8568155784651 28.814963259853  25 29.060788243153  25 29.3386773547094  C 25 29.6165664662659  24.8568155784651 29.8623914495658  24.5704467353952 30.0761523046092  L 22.4226804123711 31.6793587174349  C 22.1363115693013 31.8931195724783  21.8069873997709 32  21.4347079037801 32  C 21.0624284077892 32  20.7331042382589 31.8931195724783  20.446735395189 31.6793587174349  L 0.429553264604811 16.7374749498998  C 0.143184421534937 16.5237140948564  0 16.2778891115564  0 16  C 0 15.7221108884436  0.143184421534937 15.4762859051436  0.429553264604811 15.2625250501002  L 20.446735395189 0.320641282565131  C 20.7331042382589 0.106880427521709  21.0624284077892 0  21.4347079037801 0  C 21.8069873997709 0  22.1363115693013 0.106880427521709  22.4226804123711 0.320641282565131  L 24.5704467353952 1.92384769539078  Z " fill-rule="nonzero" fill="#000000" stroke="none" transform="matrix(1 0 0 1 352 129 )" />
  </g>
</svg>