<?xml version="1.0" encoding="utf-8"?>
<svg version="1.1" xmlns:xlink="http://www.w3.org/1999/xlink" width="12px" height="12px" viewBox="1634 601  12 12" xmlns="http://www.w3.org/2000/svg">
  <path d="M 1640 601  C 1643.36 601  1646 603.64  1646 607  C 1646 610.36  1643.36 613  1640 613  C 1636.64 613  1634 610.36  1634 607  C 1634 603.64  1636.64 601  1640 601  Z " fill-rule="nonzero" fill="#f0f0f0" stroke="none" />
  <path d="M 1640 601.5  C 1643.08 601.5  1645.5 603.92  1645.5 607  C 1645.5 610.08  1643.08 612.5  1640 612.5  C 1636.92 612.5  1634.5 610.08  1634.5 607  C 1634.5 603.92  1636.92 601.5  1640 601.5  Z " stroke-width="1" stroke="#797979" fill="none" />
  <path d="M 1640 610  C 1638.32 610  1637 608.68  1637 607  C 1637 605.32  1638.32 604  1640 604  C 1641.68 604  1643 605.32  1643 607  C 1643 608.68  1641.68 610  1640 610  " fill-rule="nonzero" fill="#797979" stroke="none" />
</svg>