<?xml version="1.0" encoding="utf-8"?>
<svg version="1.1" xmlns:xlink="http://www.w3.org/1999/xlink" width="111px" height="98px" xmlns="http://www.w3.org/2000/svg">
  <g transform="matrix(1 0 0 1 -1759 -1053 )">
    <path d="M 1759 1053  L 1870 1053  L 1870 1151  L 1759 1151  L 1759 1053  " fill-rule="nonzero" fill="#cccccc" stroke="none" />
    <path d="M 1766 1060  L 1863 1060  L 1863 1144  L 1766 1144  L 1766 1060  " fill-rule="nonzero" fill="#ffffff" stroke="none" />
    <path d="M 1824.07 1082.4  C 1819.954 1082.4  1816.72 1079.166  1816.72 1075.05  C 1816.72 1070.934  1819.954 1067.7  1824.07 1067.7  C 1828.186 1067.7  1831.42 1070.934  1831.42 1075.05  C 1831.42 1079.166  1828.186 1082.4  1824.07 1082.4  " fill-rule="nonzero" fill="#cccccc" stroke="none" />
    <path d="M 1769 1142  L 1769 1098.55  L 1792 1078.8  L 1824.2 1100.15135135135  L 1842.6 1090.65  L 1861 1100.15135135135  L 1861 1142  L 1769 1142  " fill-rule="nonzero" fill="#169bd5" stroke="none" />
  </g>
</svg>