<?xml version="1.0" encoding="utf-8"?>
<svg version="1.1" xmlns:xlink="http://www.w3.org/1999/xlink" width="12px" height="12px" viewBox="2311 601  12 12" xmlns="http://www.w3.org/2000/svg">
  <path d="M 2317 601  C 2320.36 601  2323 603.64  2323 607  C 2323 610.36  2320.36 613  2317 613  C 2313.64 613  2311 610.36  2311 607  C 2311 603.64  2313.64 601  2317 601  Z " fill-rule="nonzero" fill="#ffffff" stroke="none" />
  <path d="M 2317 601.5  C 2320.08 601.5  2322.5 603.92  2322.5 607  C 2322.5 610.08  2320.08 612.5  2317 612.5  C 2313.92 612.5  2311.5 610.08  2311.5 607  C 2311.5 603.92  2313.92 601.5  2317 601.5  Z " stroke-width="1" stroke="#797979" fill="none" />
  <path d="M 2317 610  C 2315.32 610  2314 608.68  2314 607  C 2314 605.32  2315.32 604  2317 604  C 2318.68 604  2320 605.32  2320 607  C 2320 608.68  2318.68 610  2317 610  " fill-rule="nonzero" fill="#797979" stroke="none" />
</svg>