<?xml version="1.0" encoding="utf-8"?>
<svg version="1.1" xmlns:xlink="http://www.w3.org/1999/xlink" width="12px" height="12px" viewBox="1771 601  12 12" xmlns="http://www.w3.org/2000/svg">
  <path d="M 1777 601  C 1780.36 601  1783 603.64  1783 607  C 1783 610.36  1780.36 613  1777 613  C 1773.64 613  1771 610.36  1771 607  C 1771 603.64  1773.64 601  1777 601  Z " fill-rule="nonzero" fill="#ffffff" stroke="none" />
  <path d="M 1777 601.5  C 1780.08 601.5  1782.5 603.92  1782.5 607  C 1782.5 610.08  1780.08 612.5  1777 612.5  C 1773.92 612.5  1771.5 610.08  1771.5 607  C 1771.5 603.92  1773.92 601.5  1777 601.5  Z " stroke-width="1" stroke="#797979" fill="none" />
  <path d="M 1777 610  C 1775.32 610  1774 608.68  1774 607  C 1774 605.32  1775.32 604  1777 604  C 1778.68 604  1780 605.32  1780 607  C 1780 608.68  1778.68 610  1777 610  " fill-rule="nonzero" fill="#797979" stroke="none" />
</svg>