<?xml version="1.0" encoding="utf-8"?>
<svg version="1.1" xmlns:xlink="http://www.w3.org/1999/xlink" width="12px" height="12px" viewBox="2448 601  12 12" xmlns="http://www.w3.org/2000/svg">
  <path d="M 2454 601  C 2457.36 601  2460 603.64  2460 607  C 2460 610.36  2457.36 613  2454 613  C 2450.64 613  2448 610.36  2448 607  C 2448 603.64  2450.64 601  2454 601  Z " fill-rule="nonzero" fill="#ffffff" stroke="none" />
  <path d="M 2454 601.5  C 2457.08 601.5  2459.5 603.92  2459.5 607  C 2459.5 610.08  2457.08 612.5  2454 612.5  C 2450.92 612.5  2448.5 610.08  2448.5 607  C 2448.5 603.92  2450.92 601.5  2454 601.5  Z " stroke-width="1" stroke="#797979" fill="none" />
  <path d="M 2454 610  C 2452.32 610  2451 608.68  2451 607  C 2451 605.32  2452.32 604  2454 604  C 2455.68 604  2457 605.32  2457 607  C 2457 608.68  2455.68 610  2454 610  " fill-rule="nonzero" fill="#797979" stroke="none" />
</svg>