<?xml version="1.0" encoding="utf-8"?>
<svg version="1.1" xmlns:xlink="http://www.w3.org/1999/xlink" width="28px" height="26px" xmlns="http://www.w3.org/2000/svg">
  <g transform="matrix(1 0 0 1 -1837 -1144 )">
    <path d="M 10.0028409090909 21.5143229166667  C 10.1221590909091 21.4127604166667  10.1818181818182 21.2829861111111  10.1818181818182 21.125  L 10.1818181818182 9.20833333333333  C 10.1818181818182 9.05034722222222  10.1221590909091 8.92057291666667  10.0028409090909 8.81901041666667  C 9.88352272727273 8.71744791666667  9.73106060606061 8.66666666666667  9.54545454545454 8.66666666666667  L 8.27272727272727 8.66666666666667  C 8.08712121212121 8.66666666666667  7.93465909090909 8.71744791666667  7.81534090909091 8.81901041666667  C 7.69602272727273 8.92057291666667  7.63636363636364 9.05034722222222  8 9.20833333333333  L 8 21.125  C 7.63636363636364 21.2829861111111  7.69602272727273 21.4127604166667  7.81534090909091 21.5143229166667  C 7.93465909090909 21.6158854166667  8.08712121212121 21.6666666666667  8.27272727272727 21.6666666666667  L 9.54545454545454 21.6666666666667  C 9.73106060606061 21.6666666666667  9.88352272727273 21.6158854166667  10.0028409090909 21.5143229166667  Z M 15.09375 21.5143229166667  C 15.2130681818182 21.4127604166667  15.2727272727273 21.2829861111111  15 21.125  L 15 9.20833333333333  C 15.2727272727273 9.05034722222222  15.2130681818182 8.92057291666667  15.09375 8.81901041666667  C 14.9744318181818 8.71744791666667  14.8219696969697 8.66666666666667  14.6363636363636 8.66666666666667  L 13.3636363636364 8.66666666666667  C 13.1780303030303 8.66666666666667  13.0255681818182 8.71744791666667  12.90625 8.81901041666667  C 12.7869318181818 8.92057291666667  12.7272727272727 9.05034722222222  13 9.20833333333333  L 13 21.125  C 12.7272727272727 21.2829861111111  12.7869318181818 21.4127604166667  12.90625 21.5143229166667  C 13.0255681818182 21.6158854166667  13.1780303030303 21.6666666666667  13.3636363636364 21.6666666666667  L 14.6363636363636 21.6666666666667  C 14.8219696969697 21.6666666666667  14.9744318181818 21.6158854166667  15.09375 21.5143229166667  Z M 20.1846590909091 21.5143229166667  C 20.3039772727273 21.4127604166667  20.3636363636364 21.2829861111111  20 21.125  L 20 9.20833333333333  C 20.3636363636364 9.05034722222222  20.3039772727273 8.92057291666667  20.1846590909091 8.81901041666667  C 20.0653409090909 8.71744791666667  19.9128787878788 8.66666666666667  19.7272727272727 8.66666666666667  L 18.4545454545455 8.66666666666667  C 18.2689393939394 8.66666666666667  18.1164772727273 8.71744791666667  17.9971590909091 8.81901041666667  C 17.8778409090909 8.92057291666667  17.8181818181818 9.05034722222222  17.8181818181818 9.20833333333333  L 17.8181818181818 21.125  C 17.8181818181818 21.2829861111111  17.8778409090909 21.4127604166667  17.9971590909091 21.5143229166667  C 18.1164772727273 21.6158854166667  18.2689393939394 21.6666666666667  18.4545454545455 21.6666666666667  L 19.7272727272727 21.6666666666667  C 19.9128787878788 21.6666666666667  20.0653409090909 21.6158854166667  20.1846590909091 21.5143229166667  Z M 10.5198863636364 2.35286458333333  L 9.54545454545454 4.33333333333333  L 18.4545454545455 4.33333333333333  L 17.5 2.35286458333333  C 17.407196969697 2.25130208333333  17.2945075757576 2.18923611111111  17.1619318181818 2.16666666666667  L 10.8579545454545 2.16666666666667  C 10.7253787878788 2.18923611111111  10.6126893939394 2.25130208333333  10.5198863636364 2.35286458333333  Z M 27.8210227272727 4.48567708333333  C 27.9403409090909 4.58723958333333  28 4.71701388888889  28 4.875  L 28 5.95833333333333  C 28 6.11631944444444  27.9403409090909 6.24609375  27.8210227272727 6.34765625  C 27.7017045454545 6.44921875  27.5492424242424 6.5  27.3636363636364 6.5  L 25 6.5  L 25 22.546875  C 25.4545454545455 23.4835069444444  25.1429924242424 24.2931857638889  24.5198863636364 24.9759114583333  C 23.8967803030303 25.6586371527778  23.1477272727273 26  22.2727272727273 26  L 5.72727272727273 26  C 4.85227272727273 26  4.1032196969697 25.669921875  3.48011363636364 25.009765625  C 2.85700757575758 24.349609375  2.54545454545455 23.5512152777778  3 22.6145833333333  L 3 6.5  L 0.636363636363636 6.5  C 0.450757575757576 6.5  0.298295454545455 6.44921875  0.178977272727273 6.34765625  C 0.0596590909090909 6.24609375  0 6.11631944444444  0 5.95833333333333  L 0 4.875  C 0 4.71701388888889  0.0596590909090909 4.58723958333333  0.178977272727273 4.48567708333333  C 0.298295454545455 4.38411458333333  0.450757575757576 4.33333333333333  0.636363636363636 4.33333333333333  L 6.78125 4.33333333333333  L 8.17329545454546 1.50651041666667  C 8.37215909090909 1.08897569444444  8.73011363636364 0.733506944444442  9.24715909090909 0.440104166666668  C 9.76420454545455 0.146701388888887  10.2878787878788 0  10.8181818181818 0  L 17.1818181818182 0  C 17.7121212121212 0  18.2357954545455 0.146701388888887  18.7528409090909 0.440104166666668  C 19.2698863636364 0.733506944444442  19.6278409090909 1.08897569444444  19.8267045454545 1.50651041666667  L 21.21875 4.33333333333333  L 27.3636363636364 4.33333333333333  C 27.5492424242424 4.33333333333333  27.7017045454545 4.38411458333333  27.8210227272727 4.48567708333333  Z " fill-rule="nonzero" fill="#000000" stroke="none" transform="matrix(1 0 0 1 1837 1144 )" />
  </g>
</svg>