<?xml version="1.0" encoding="utf-8"?>
<svg version="1.1" xmlns:xlink="http://www.w3.org/1999/xlink" width="12px" height="12px" viewBox="1766 693  12 12" xmlns="http://www.w3.org/2000/svg">
  <path d="M 1772 693  C 1775.36 693  1778 695.64  1778 699  C 1778 702.36  1775.36 705  1772 705  C 1768.64 705  1766 702.36  1766 699  C 1766 695.64  1768.64 693  1772 693  Z " fill-rule="nonzero" fill="#f0f0f0" stroke="none" />
  <path d="M 1772 693.5  C 1775.08 693.5  1777.5 695.92  1777.5 699  C 1777.5 702.08  1775.08 704.5  1772 704.5  C 1768.92 704.5  1766.5 702.08  1766.5 699  C 1766.5 695.92  1768.92 693.5  1772 693.5  Z " stroke-width="1" stroke="#797979" fill="none" />
  <path d="M 1772 702  C 1770.32 702  1769 700.68  1769 699  C 1769 697.32  1770.32 696  1772 696  C 1773.68 696  1775 697.32  1775 699  C 1775 700.68  1773.68 702  1772 702  " fill-rule="nonzero" fill="#797979" stroke="none" />
</svg>