<?xml version="1.0" encoding="utf-8"?>
<svg version="1.1" xmlns:xlink="http://www.w3.org/1999/xlink" width="76px" height="71px" xmlns="http://www.w3.org/2000/svg">
  <g transform="matrix(1 0 0 1 -1517 -247 )">
    <path d="M 1517 247  L 1593 247  L 1593 318  L 1517 318  L 1517 247  " fill-rule="nonzero" fill="#cccccc" stroke="none" />
    <path d="M 1522 252  L 1588 252  L 1588 313  L 1522 313  L 1522 252  " fill-rule="nonzero" fill="#ffffff" stroke="none" />
    <path d="M 1561.845 268.3  C 1558.863 268.3  1556.52 265.957  1556.52 262.975  C 1556.52 259.993  1558.863 257.65  1561.845 257.65  C 1564.827 257.65  1567.17 259.993  1567.17 262.975  C 1567.17 265.957  1564.827 268.3  1561.845 268.3  " fill-rule="nonzero" fill="#cccccc" stroke="none" />
    <path d="M 1524 311  L 1524 279.65  L 1539.5 265.4  L 1561.2 279.05  L 1573.6 273.95  L 1586 279.05  L 1586 311  L 1524 311  " fill-rule="nonzero" fill="#169bd5" stroke="none" />
  </g>
</svg>