<?xml version="1.0" encoding="utf-8"?>
<svg version="1.1" xmlns:xlink="http://www.w3.org/1999/xlink" width="12px" height="12px" viewBox="2443 693  12 12" xmlns="http://www.w3.org/2000/svg">
  <path d="M 2449 693  C 2452.36 693  2455 695.64  2455 699  C 2455 702.36  2452.36 705  2449 705  C 2445.64 705  2443 702.36  2443 699  C 2443 695.64  2445.64 693  2449 693  Z " fill-rule="nonzero" fill="#ffffff" stroke="none" />
  <path d="M 2449 693.5  C 2452.08 693.5  2454.5 695.92  2454.5 699  C 2454.5 702.08  2452.08 704.5  2449 704.5  C 2445.92 704.5  2443.5 702.08  2443.5 699  C 2443.5 695.92  2445.92 693.5  2449 693.5  Z " stroke-width="1" stroke="#797979" fill="none" />
  <path d="M 2449 702  C 2447.32 702  2446 700.68  2446 699  C 2446 697.32  2447.32 696  2449 696  C 2450.68 696  2452 697.32  2452 699  C 2452 700.68  2450.68 702  2449 702  " fill-rule="nonzero" fill="#797979" stroke="none" />
</svg>