<?xml version="1.0" encoding="utf-8"?>
<svg version="1.1" xmlns:xlink="http://www.w3.org/1999/xlink" width="12px" height="12px" viewBox="2306 693  12 12" xmlns="http://www.w3.org/2000/svg">
  <path d="M 2312 693  C 2315.36 693  2318 695.64  2318 699  C 2318 702.36  2315.36 705  2312 705  C 2308.64 705  2306 702.36  2306 699  C 2306 695.64  2308.64 693  2312 693  Z " fill-rule="nonzero" fill="#f0f0f0" stroke="none" />
  <path d="M 2312 693.5  C 2315.08 693.5  2317.5 695.92  2317.5 699  C 2317.5 702.08  2315.08 704.5  2312 704.5  C 2308.92 704.5  2306.5 702.08  2306.5 699  C 2306.5 695.92  2308.92 693.5  2312 693.5  Z " stroke-width="1" stroke="#797979" fill="none" />
  <path d="M 2312 702  C 2310.32 702  2309 700.68  2309 699  C 2309 697.32  2310.32 696  2312 696  C 2313.68 696  2315 697.32  2315 699  C 2315 700.68  2313.68 702  2312 702  " fill-rule="nonzero" fill="#797979" stroke="none" />
</svg>