<?xml version="1.0" encoding="utf-8"?>
<svg version="1.1" xmlns:xlink="http://www.w3.org/1999/xlink" width="111px" height="98px" xmlns="http://www.w3.org/2000/svg">
  <g transform="matrix(1 0 0 1 -1754 -1145 )">
    <path d="M 1754 1145  L 1865 1145  L 1865 1243  L 1754 1243  L 1754 1145  " fill-rule="nonzero" fill="#cccccc" stroke="none" />
    <path d="M 1761 1152  L 1858 1152  L 1858 1236  L 1761 1236  L 1761 1152  " fill-rule="nonzero" fill="#ffffff" stroke="none" />
    <path d="M 1819.07 1174.4  C 1814.954 1174.4  1811.72 1171.166  1811.72 1167.05  C 1811.72 1162.934  1814.954 1159.7  1819.07 1159.7  C 1823.186 1159.7  1826.42 1162.934  1826.42 1167.05  C 1826.42 1171.166  1823.186 1174.4  1819.07 1174.4  " fill-rule="nonzero" fill="#cccccc" stroke="none" />
    <path d="M 1764 1234  L 1764 1190.55  L 1787 1170.8  L 1819.2 1192.15135135135  L 1837.6 1182.65  L 1856 1192.15135135135  L 1856 1234  L 1764 1234  " fill-rule="nonzero" fill="#169bd5" stroke="none" />
  </g>
</svg>