<?xml version="1.0" encoding="utf-8"?>
<svg version="1.1" xmlns:xlink="http://www.w3.org/1999/xlink" width="12px" height="12px" viewBox="2555 1263  12 12" xmlns="http://www.w3.org/2000/svg">
  <path d="M 2561 1263  C 2564.36 1263  2567 1265.64  2567 1269  C 2567 1272.36  2564.36 1275  2561 1275  C 2557.64 1275  2555 1272.36  2555 1269  C 2555 1265.64  2557.64 1263  2561 1263  Z " fill-rule="nonzero" fill="#f0f0f0" stroke="none" />
  <path d="M 2561 1263.5  C 2564.08 1263.5  2566.5 1265.92  2566.5 1269  C 2566.5 1272.08  2564.08 1274.5  2561 1274.5  C 2557.92 1274.5  2555.5 1272.08  2555.5 1269  C 2555.5 1265.92  2557.92 1263.5  2561 1263.5  Z " stroke-width="1" stroke="#797979" fill="none" />
  <path d="M 2561 1272  C 2559.32 1272  2558 1270.68  2558 1269  C 2558 1267.32  2559.32 1266  2561 1266  C 2562.68 1266  2564 1267.32  2564 1269  C 2564 1270.68  2562.68 1272  2561 1272  " fill-rule="nonzero" fill="#797979" stroke="none" />
</svg>