<?xml version="1.0" encoding="utf-8"?>
<svg version="1.1" xmlns:xlink="http://www.w3.org/1999/xlink" width="12px" height="12px" viewBox="1629 1263  12 12" xmlns="http://www.w3.org/2000/svg">
  <path d="M 1635 1263  C 1638.36 1263  1641 1265.64  1641 1269  C 1641 1272.36  1638.36 1275  1635 1275  C 1631.64 1275  1629 1272.36  1629 1269  C 1629 1265.64  1631.64 1263  1635 1263  Z " fill-rule="nonzero" fill="#ffffff" stroke="none" />
  <path d="M 1635 1263.5  C 1638.08 1263.5  1640.5 1265.92  1640.5 1269  C 1640.5 1272.08  1638.08 1274.5  1635 1274.5  C 1631.92 1274.5  1629.5 1272.08  1629.5 1269  C 1629.5 1265.92  1631.92 1263.5  1635 1263.5  Z " stroke-width="1" stroke="#797979" fill="none" />
  <path d="M 1635 1272  C 1633.32 1272  1632 1270.68  1632 1269  C 1632 1267.32  1633.32 1266  1635 1266  C 1636.68 1266  1638 1267.32  1638 1269  C 1638 1270.68  1636.68 1272  1635 1272  " fill-rule="nonzero" fill="#797979" stroke="none" />
</svg>