<?xml version="1.0" encoding="utf-8"?>
<svg version="1.1" xmlns:xlink="http://www.w3.org/1999/xlink" width="12px" height="12px" viewBox="2437 1263  12 12" xmlns="http://www.w3.org/2000/svg">
  <path d="M 2443 1263  C 2446.36 1263  2449 1265.64  2449 1269  C 2449 1272.36  2446.36 1275  2443 1275  C 2439.64 1275  2437 1272.36  2437 1269  C 2437 1265.64  2439.64 1263  2443 1263  Z " fill-rule="nonzero" fill="#f0f0f0" stroke="none" />
  <path d="M 2443 1263.5  C 2446.08 1263.5  2448.5 1265.92  2448.5 1269  C 2448.5 1272.08  2446.08 1274.5  2443 1274.5  C 2439.92 1274.5  2437.5 1272.08  2437.5 1269  C 2437.5 1265.92  2439.92 1263.5  2443 1263.5  Z " stroke-width="1" stroke="#797979" fill="none" />
  <path d="M 2443 1272  C 2441.32 1272  2440 1270.68  2440 1269  C 2440 1267.32  2441.32 1266  2443 1266  C 2444.68 1266  2446 1267.32  2446 1269  C 2446 1270.68  2444.68 1272  2443 1272  " fill-rule="nonzero" fill="#797979" stroke="none" />
</svg>