<?xml version="1.0" encoding="utf-8"?>
<svg version="1.1" xmlns:xlink="http://www.w3.org/1999/xlink" width="12px" height="12px" viewBox="1740 1263  12 12" xmlns="http://www.w3.org/2000/svg">
  <path d="M 1746 1263  C 1749.36 1263  1752 1265.64  1752 1269  C 1752 1272.36  1749.36 1275  1746 1275  C 1742.64 1275  1740 1272.36  1740 1269  C 1740 1265.64  1742.64 1263  1746 1263  Z " fill-rule="nonzero" fill="#ffffff" stroke="none" />
  <path d="M 1746 1263.5  C 1749.08 1263.5  1751.5 1265.92  1751.5 1269  C 1751.5 1272.08  1749.08 1274.5  1746 1274.5  C 1742.92 1274.5  1740.5 1272.08  1740.5 1269  C 1740.5 1265.92  1742.92 1263.5  1746 1263.5  Z " stroke-width="1" stroke="#797979" fill="none" />
  <path d="M 1746 1272  C 1744.32 1272  1743 1270.68  1743 1269  C 1743 1267.32  1744.32 1266  1746 1266  C 1747.68 1266  1749 1267.32  1749 1269  C 1749 1270.68  1747.68 1272  1746 1272  " fill-rule="nonzero" fill="#797979" stroke="none" />
</svg>