<?xml version="1.0" encoding="utf-8"?>
<svg version="1.1" xmlns:xlink="http://www.w3.org/1999/xlink" width="12px" height="12px" viewBox="1858 1263  12 12" xmlns="http://www.w3.org/2000/svg">
  <path d="M 1864 1263  C 1867.36 1263  1870 1265.64  1870 1269  C 1870 1272.36  1867.36 1275  1864 1275  C 1860.64 1275  1858 1272.36  1858 1269  C 1858 1265.64  1860.64 1263  1864 1263  Z " fill-rule="nonzero" fill="#f0f0f0" stroke="none" />
  <path d="M 1864 1263.5  C 1867.08 1263.5  1869.5 1265.92  1869.5 1269  C 1869.5 1272.08  1867.08 1274.5  1864 1274.5  C 1860.92 1274.5  1858.5 1272.08  1858.5 1269  C 1858.5 1265.92  1860.92 1263.5  1864 1263.5  Z " stroke-width="1" stroke="#797979" fill="none" />
  <path d="M 1864 1272  C 1862.32 1272  1861 1270.68  1861 1269  C 1861 1267.32  1862.32 1266  1864 1266  C 1865.68 1266  1867 1267.32  1867 1269  C 1867 1270.68  1865.68 1272  1864 1272  " fill-rule="nonzero" fill="#797979" stroke="none" />
</svg>