<?xml version="1.0" encoding="utf-8"?>
<svg version="1.1" xmlns:xlink="http://www.w3.org/1999/xlink" width="12px" height="12px" viewBox="2326 1263  12 12" xmlns="http://www.w3.org/2000/svg">
  <path d="M 2332 1263  C 2335.36 1263  2338 1265.64  2338 1269  C 2338 1272.36  2335.36 1275  2332 1275  C 2328.64 1275  2326 1272.36  2326 1269  C 2326 1265.64  2328.64 1263  2332 1263  Z " fill-rule="nonzero" fill="#ffffff" stroke="none" />
  <path d="M 2332 1263.5  C 2335.08 1263.5  2337.5 1265.92  2337.5 1269  C 2337.5 1272.08  2335.08 1274.5  2332 1274.5  C 2328.92 1274.5  2326.5 1272.08  2326.5 1269  C 2326.5 1265.92  2328.92 1263.5  2332 1263.5  Z " stroke-width="1" stroke="#797979" fill="none" />
  <path d="M 2332 1272  C 2330.32 1272  2329 1270.68  2329 1269  C 2329 1267.32  2330.32 1266  2332 1266  C 2333.68 1266  2335 1267.32  2335 1269  C 2335 1270.68  2333.68 1272  2332 1272  " fill-rule="nonzero" fill="#797979" stroke="none" />
</svg>