<?xml version="1.0" encoding="utf-8"?>
<svg version="1.1" xmlns:xlink="http://www.w3.org/1999/xlink" width="12px" height="12px" viewBox="1880 1509  12 12" xmlns="http://www.w3.org/2000/svg">
  <path d="M 1886 1509  C 1889.36 1509  1892 1511.64  1892 1515  C 1892 1518.36  1889.36 1521  1886 1521  C 1882.64 1521  1880 1518.36  1880 1515  C 1880 1511.64  1882.64 1509  1886 1509  Z " fill-rule="nonzero" fill="#f0f0f0" stroke="none" />
  <path d="M 1886 1509.5  C 1889.08 1509.5  1891.5 1511.92  1891.5 1515  C 1891.5 1518.08  1889.08 1520.5  1886 1520.5  C 1882.92 1520.5  1880.5 1518.08  1880.5 1515  C 1880.5 1511.92  1882.92 1509.5  1886 1509.5  Z " stroke-width="1" stroke="#797979" fill="none" />
  <path d="M 1886 1518  C 1884.32 1518  1883 1516.68  1883 1515  C 1883 1513.32  1884.32 1512  1886 1512  C 1887.68 1512  1889 1513.32  1889 1515  C 1889 1516.68  1887.68 1518  1886 1518  " fill-rule="nonzero" fill="#797979" stroke="none" />
</svg>