<?xml version="1.0" encoding="utf-8"?>
<svg version="1.1" xmlns:xlink="http://www.w3.org/1999/xlink" width="12px" height="12px" viewBox="2258 1529  12 12" xmlns="http://www.w3.org/2000/svg">
  <path d="M 2264 1529  C 2267.36 1529  2270 1531.64  2270 1535  C 2270 1538.36  2267.36 1541  2264 1541  C 2260.64 1541  2258 1538.36  2258 1535  C 2258 1531.64  2260.64 1529  2264 1529  Z " fill-rule="nonzero" fill="#f0f0f0" stroke="none" />
  <path d="M 2264 1529.5  C 2267.08 1529.5  2269.5 1531.92  2269.5 1535  C 2269.5 1538.08  2267.08 1540.5  2264 1540.5  C 2260.92 1540.5  2258.5 1538.08  2258.5 1535  C 2258.5 1531.92  2260.92 1529.5  2264 1529.5  Z " stroke-width="1" stroke="#797979" fill="none" />
  <path d="M 2264 1538  C 2262.32 1538  2261 1536.68  2261 1535  C 2261 1533.32  2262.32 1532  2264 1532  C 2265.68 1532  2267 1533.32  2267 1535  C 2267 1536.68  2265.68 1538  2264 1538  " fill-rule="nonzero" fill="#797979" stroke="none" />
</svg>