<?xml version="1.0" encoding="utf-8"?>
<svg version="1.1" xmlns:xlink="http://www.w3.org/1999/xlink" width="12px" height="12px" viewBox="1765 1509  12 12" xmlns="http://www.w3.org/2000/svg">
  <path d="M 1771 1509  C 1774.36 1509  1777 1511.64  1777 1515  C 1777 1518.36  1774.36 1521  1771 1521  C 1767.64 1521  1765 1518.36  1765 1515  C 1765 1511.64  1767.64 1509  1771 1509  Z " fill-rule="nonzero" fill="#f0f0f0" stroke="none" />
  <path d="M 1771 1509.5  C 1774.08 1509.5  1776.5 1511.92  1776.5 1515  C 1776.5 1518.08  1774.08 1520.5  1771 1520.5  C 1767.92 1520.5  1765.5 1518.08  1765.5 1515  C 1765.5 1511.92  1767.92 1509.5  1771 1509.5  Z " stroke-width="1" stroke="#797979" fill="none" />
  <path d="M 1771 1518  C 1769.32 1518  1768 1516.68  1768 1515  C 1768 1513.32  1769.32 1512  1771 1512  C 1772.68 1512  1774 1513.32  1774 1515  C 1774 1516.68  1772.68 1518  1771 1518  " fill-rule="nonzero" fill="#797979" stroke="none" />
</svg>