<?xml version="1.0" encoding="utf-8"?>
<svg version="1.1" xmlns:xlink="http://www.w3.org/1999/xlink" width="63px" height="32px" xmlns="http://www.w3.org/2000/svg">
  <defs>
    <mask fill="white" id="clip195">
      <path d="M 0 28  L 0 4  C 0 1.76000000000004  0.989999999999918 0  2.25 0  L 34.36875 0  L 60.75 0  C 62.0100000000001 0  63 1.76000000000004  63 4  L 63 28  C 63 30.24  62.0100000000001 32  60.75 32  L 2.25 32  C 0.989999999999918 32  0 30.24  0 28  Z " fill-rule="evenodd" />
    </mask>
  </defs>
  <g transform="matrix(1 0 0 1 -243 -606 )">
    <path d="M 0 28  L 0 4  C 0 1.76000000000004  0.989999999999918 0  2.25 0  L 34.36875 0  L 60.75 0  C 62.0100000000001 0  63 1.76000000000004  63 4  L 63 28  C 63 30.24  62.0100000000001 32  60.75 32  L 2.25 32  C 0.989999999999918 32  0 30.24  0 28  Z " fill-rule="nonzero" fill="#ffffff" stroke="none" transform="matrix(1 0 0 1 243 606 )" />
    <path d="M 0 28  L 0 4  C 0 1.76000000000004  0.989999999999918 0  2.25 0  L 34.36875 0  L 60.75 0  C 62.0100000000001 0  63 1.76000000000004  63 4  L 63 28  C 63 30.24  62.0100000000001 32  60.75 32  L 2.25 32  C 0.989999999999918 32  0 30.24  0 28  Z " stroke-width="2" stroke="#797979" fill="none" transform="matrix(1 0 0 1 243 606 )" mask="url(#clip195)" />
  </g>
</svg>