<?xml version="1.0" encoding="utf-8"?>
<svg version="1.1" xmlns:xlink="http://www.w3.org/1999/xlink" width="18px" height="16px" xmlns="http://www.w3.org/2000/svg">
  <g transform="matrix(1 0 0 1 -772 -313 )">
    <path d="M 17.5757575757576 11.959595959596  C 17.8585858585859 12.2109988776655  18 12.5162738496072  18 12.8754208754209  C 18 13.2345679012346  17.8585858585859 13.5398428731762  17.5757575757576 13.7912457912458  L 15.5151515151515 15.6228956228956  C 15.2323232323232 15.8742985409652  14.8888888888889 16  14.4848484848485 16  C 14.0808080808081 16  13.7373737373737 15.8742985409652  13.4545454545455 15.6228956228956  L 9 11.6632996632997  L 4.54545454545455 15.6228956228956  C 4.26262626262626 15.8742985409652  3.91919191919192 16  3.51515151515152 16  C 3.11111111111111 16  2.76767676767677 15.8742985409652  2.48484848484848 15.6228956228956  L 0.424242424242424 13.7912457912458  C 0.141414141414142 13.5398428731762  0 13.2345679012346  0 12.8754208754209  C 0 12.5162738496072  0.141414141414142 12.2109988776655  0.424242424242424 11.959595959596  L 4.87878787878788 8  L 0.424242424242424 4.04040404040404  C 0.141414141414142 3.78900112233445  0 3.48372615039282  0 3.12457912457912  C 0 2.76543209876543  0.141414141414142 2.46015712682379  0.424242424242424 2.20875420875421  L 2.48484848484848 0.377104377104377  C 2.76767676767677 0.125701459034792  3.11111111111111 0  3.51515151515152 0  C 3.91919191919192 0  4.26262626262626 0.125701459034792  4.54545454545455 0.377104377104377  L 9 4.33670033670034  L 13.4545454545455 0.377104377104377  C 13.7373737373737 0.125701459034792  14.0808080808081 0  14.4848484848485 0  C 14.8888888888889 0  15.2323232323232 0.125701459034792  15.5151515151515 0.377104377104377  L 17.5757575757576 2.20875420875421  C 17.8585858585859 2.46015712682379  18 2.76543209876543  18 3.12457912457912  C 18 3.48372615039282  17.8585858585859 3.78900112233445  17.5757575757576 4.04040404040404  L 13.1212121212121 8  L 17.5757575757576 11.959595959596  Z " fill-rule="nonzero" fill="#000000" stroke="none" transform="matrix(1 0 0 1 772 313 )" />
  </g>
</svg>