<?xml version="1.0" encoding="utf-8"?>
<svg version="1.1" xmlns:xlink="http://www.w3.org/1999/xlink" width="22px" height="20px" xmlns="http://www.w3.org/2000/svg">
  <g transform="matrix(1 0 0 1 -1227 -24 )">
    <path d="M 21.505859375 11.7903645833333  C 21.5965711805556 11.8728298611111  21.6419270833333 11.9704861111111  21.6419270833333 12.0833333333333  C 21.6419270833333 12.1267361111111  21.6371527777778 12.1571180555556  21.6276041666667 12.1744791666667  C 21.0164930555556 14.5008680555556  19.7369791666667 16.38671875  17.7890625 17.83203125  C 15.8411458333333 19.27734375  13.5590277777778 20  10.9427083333333 20  C 9.54861111111111 20  8.19986979166667 19.7612847222222  6.896484375 19.2838541666667  C 5.59309895833333 18.8064236111111  4.43055555555556 18.125  3.40885416666667 17.2395833333333  L 1.56119791666667 18.9192708333333  C 1.37977430555556 19.0842013888889  1.16493055555556 19.1666666666667  0.916666666666667 19.1666666666667  C 0.668402777777778 19.1666666666667  0.453559027777778 19.0842013888889  0.272135416666667 18.9192708333333  C 0.0907118055555556 18.7543402777778  0 18.5590277777778  0 18.3333333333333  L 0 12.5  C 0 12.2743055555556  0.0907118055555556 12.0789930555556  0.272135416666667 11.9140625  C 0.453559027777778 11.7491319444444  0.668402777777778 11.6666666666667  0.916666666666667 11.6666666666667  L 7.33333333333333 11.6666666666667  C 7.58159722222222 11.6666666666667  7.79644097222222 11.7491319444444  7.97786458333333 11.9140625  C 8.15928819444445 12.0789930555556  8.25 12.2743055555556  8.25 12.5  C 8.25 12.7256944444444  8.15928819444445 12.9210069444444  7.97786458333333 13.0859375  L 6.015625 14.8697916666667  C 6.69357638888889 15.4427083333333  7.46223958333333 15.8854166666667  8.32161458333333 16.1979166666667  C 9.18098958333333 16.5104166666667  10.0737847222222 16.6666666666667  11 16.6666666666667  C 12.2795138888889 16.6666666666667  13.4730902777778 16.3845486111111  14.5807291666667 15.8203125  C 15.6883680555556 15.2560763888889  16.5763888888889 14.4791666666667  17.2447916666667 13.4895833333333  C 17.3498263888889 13.3420138888889  17.6028645833333 12.8342013888889  18.00390625 11.9661458333333  C 18.0802951388889 11.7664930555556  18.2235243055556 11.6666666666667  18.43359375 11.6666666666667  L 21.18359375 11.6666666666667  C 21.3077256944444 11.6666666666667  21.4151475694444 11.7078993055556  21.505859375 11.7903645833333  Z M 21.7278645833333 1.08072916666667  C 21.9092881944444 1.24565972222222  22 1.44097222222222  22 1.66666666666667  L 22 7.5  C 22 7.72569444444444  21.9092881944444 7.92100694444444  21.7278645833333 8.0859375  C 21.5464409722222 8.25086805555556  21.3315972222222 8.33333333333333  21.0833333333333 8.33333333333333  L 14.6666666666667 8.33333333333333  C 14.4184027777778 8.33333333333333  14.2035590277778 8.25086805555556  14.0221354166667 8.0859375  C 13.8407118055556 7.92100694444444  13.75 7.72569444444444  13.75 7.5  C 13.75 7.27430555555555  13.8407118055556 7.07899305555555  14.0221354166667 6.9140625  L 15.9986979166667 5.1171875  C 14.5855034722222 3.92795138888889  12.9192708333333 3.33333333333333  11 3.33333333333333  C 9.72048611111111 3.33333333333333  8.52690972222222 3.61545138888889  7.41927083333333 4.1796875  C 6.31163194444445 4.74392361111111  5.42361111111111 5.52083333333333  4.75520833333333 6.51041666666667  C 4.65017361111111 6.65798611111111  4.39713541666667 7.16579861111111  3.99609375 8.03385416666667  C 3.91970486111111 8.23350694444444  3.77647569444445 8.33333333333333  3.56640625 8.33333333333333  L 0.716145833333333 8.33333333333333  C 0.592013888888889 8.33333333333333  0.484592013888889 8.29210069444444  0.393880208333333 8.20963541666667  C 0.303168402777778 8.12717013888889  0.2578125 8.02951388888889  0.2578125 7.91666666666667  L 0.2578125 7.82552083333333  C 0.878472222222222 5.49913194444444  2.16753472222222 3.61328125  4.125 2.16796875  C 6.08246527777778 0.72265625  8.37413194444445 0  11 0  C 12.3940972222222 0  13.75 0.240885416666667  15.0677083333333 0.72265625  C 16.3854166666667 1.20442708333333  17.5551215277778 1.88368055555555  18.5768229166667 2.76041666666667  L 20.4388020833333 1.08072916666667  C 20.6202256944444 0.915798611111109  20.8350694444444 0.833333333333333  21.0833333333333 0.833333333333333  C 21.3315972222222 0.833333333333333  21.5464409722222 0.915798611111109  21.7278645833333 1.08072916666667  Z " fill-rule="nonzero" fill="#000000" stroke="none" transform="matrix(1 0 0 1 1227 24 )" />
  </g>
</svg>