<?xml version="1.0" encoding="utf-8"?>
<svg version="1.1" xmlns:xlink="http://www.w3.org/1999/xlink" width="318px" height="10px" preserveAspectRatio="xMinYMid meet" viewBox="3043 727  318 8" xmlns="http://www.w3.org/2000/svg">
  <path d="M 3048 433  L 3048 731  L 3355 731  " stroke-width="2" stroke-dasharray="6,2" stroke="#70b603" fill="none" />
  <path d="M 3048 427  A 3.5 3.5 0 0 0 3044.5 430.5 A 3.5 3.5 0 0 0 3048 434 A 3.5 3.5 0 0 0 3051.5 430.5 A 3.5 3.5 0 0 0 3048 427 Z M 3048 429  A 1.5 1.5 0 0 1 3049.5 430.5 A 1.5 1.5 0 0 1 3048 432 A 1.5 1.5 0 0 1 3046.5 430.5 A 1.5 1.5 0 0 1 3048 429 Z M 3354 738.6  L 3361 731  L 3354 723.4  L 3354 738.6  Z M 3356 733.8  L 3356 728.2  L 3358 731  L 3356 733.8  Z " fill-rule="nonzero" fill="#70b603" stroke="none" />
</svg>