<?xml version="1.0" encoding="utf-8"?>
<svg version="1.1" xmlns:xlink="http://www.w3.org/1999/xlink" width="20px" height="21px" preserveAspectRatio="xMidYMin meet" viewBox="3244 420  18 21" xmlns="http://www.w3.org/2000/svg">
  <path d="M 3253 433  L 3253 728  A 3 3 0 0 1 3256 731 A 3 3 0 0 1 3253 734 L 3253 977  A 3 3 0 0 1 3256 980 A 3 3 0 0 1 3253 983 L 3253 1096  L 3355 1096  " stroke-width="2" stroke-dasharray="6,2" stroke="#000000" fill="none" />
  <path d="M 3253 427  A 3.5 3.5 0 0 0 3249.5 430.5 A 3.5 3.5 0 0 0 3253 434 A 3.5 3.5 0 0 0 3256.5 430.5 A 3.5 3.5 0 0 0 3253 427 Z M 3253 429  A 1.5 1.5 0 0 1 3254.5 430.5 A 1.5 1.5 0 0 1 3253 432 A 1.5 1.5 0 0 1 3251.5 430.5 A 1.5 1.5 0 0 1 3253 429 Z M 3354 1103.6  L 3361 1096  L 3354 1088.4  L 3354 1103.6  Z M 3356 1098.8  L 3356 1093.2  L 3358 1096  L 3356 1098.8  Z " fill-rule="nonzero" fill="#000000" stroke="none" />
</svg>