<?xml version="1.0" encoding="utf-8"?>
<svg version="1.1" xmlns:xlink="http://www.w3.org/1999/xlink" width="482px" height="10px" preserveAspectRatio="xMinYMid meet" viewBox="3102 976  482 8" xmlns="http://www.w3.org/2000/svg">
  <path d="M 3107 433  L 3107 728  A 3 3 0 0 1 3110 731 A 3 3 0 0 1 3107 734 L 3107 980  L 3579 980  L 3579 973  " stroke-width="2" stroke-dasharray="6,2" stroke="#d9001b" fill="none" />
  <path d="M 3107 427  A 3.5 3.5 0 0 0 3103.5 430.5 A 3.5 3.5 0 0 0 3107 434 A 3.5 3.5 0 0 0 3110.5 430.5 A 3.5 3.5 0 0 0 3107 427 Z M 3107 429  A 1.5 1.5 0 0 1 3108.5 430.5 A 1.5 1.5 0 0 1 3107 432 A 1.5 1.5 0 0 1 3105.5 430.5 A 1.5 1.5 0 0 1 3107 429 Z M 3586.6 974  L 3579 967  L 3571.4 974  L 3586.6 974  Z M 3581.8 972  L 3576.2 972  L 3579 970  L 3581.8 972  Z " fill-rule="nonzero" fill="#d9001b" stroke="none" />
</svg>