<?xml version="1.0" encoding="utf-8"?>
<svg version="1.1" xmlns:xlink="http://www.w3.org/1999/xlink" width="20px" height="21px" preserveAspectRatio="xMidYMin meet" viewBox="3692 420  18 21" xmlns="http://www.w3.org/2000/svg">
  <path d="M 3701 433  L 3701 540  L 4381 540  L 4381 659  " stroke-width="2" stroke-dasharray="6,2" stroke="#70b603" fill="none" />
  <path d="M 3701 427  A 3.5 3.5 0 0 0 3697.5 430.5 A 3.5 3.5 0 0 0 3701 434 A 3.5 3.5 0 0 0 3704.5 430.5 A 3.5 3.5 0 0 0 3701 427 Z M 3701 429  A 1.5 1.5 0 0 1 3702.5 430.5 A 1.5 1.5 0 0 1 3701 432 A 1.5 1.5 0 0 1 3699.5 430.5 A 1.5 1.5 0 0 1 3701 429 Z M 4373.4 658  L 4381 665  L 4388.6 658  L 4373.4 658  Z M 4378.2 660  L 4383.8 660  L 4381 662  L 4378.2 660  Z " fill-rule="nonzero" fill="#70b603" stroke="none" />
</svg>