<?xml version="1.0" encoding="utf-8"?>
<svg version="1.1" xmlns:xlink="http://www.w3.org/1999/xlink" width="20px" height="20px" preserveAspectRatio="xMinYMid meet" viewBox="3872 148  20 18" xmlns="http://www.w3.org/2000/svg">
  <path d="M 3610 400  L 3610 157  L 3881 157  " stroke-width="2" stroke-dasharray="6,2" stroke="#70b603" fill="none" />
  <path d="M 3610 399  A 3.5 3.5 0 0 0 3606.5 402.5 A 3.5 3.5 0 0 0 3610 406 A 3.5 3.5 0 0 0 3613.5 402.5 A 3.5 3.5 0 0 0 3610 399 Z M 3610 401  A 1.5 1.5 0 0 1 3611.5 402.5 A 1.5 1.5 0 0 1 3610 404 A 1.5 1.5 0 0 1 3608.5 402.5 A 1.5 1.5 0 0 1 3610 401 Z M 3880 164.6  L 3887 157  L 3880 149.4  L 3880 164.6  Z M 3882 159.8  L 3882 154.2  L 3884 157  L 3882 159.8  Z " fill-rule="nonzero" fill="#70b603" stroke="none" />
</svg>