<?xml version="1.0" encoding="utf-8"?>
<svg version="1.1" xmlns:xlink="http://www.w3.org/1999/xlink" width="10px" height="188px" preserveAspectRatio="xMidYMin meet" viewBox="2626 137  8 188" xmlns="http://www.w3.org/2000/svg">
  <path d="M 2763 309  L 2763 320  L 2630 320  L 2630 142  L 2637 142  " stroke-width="2" stroke-dasharray="6,2" stroke="#000000" fill="none" />
  <path d="M 2763 303  A 3.5 3.5 0 0 0 2759.5 306.5 A 3.5 3.5 0 0 0 2763 310 A 3.5 3.5 0 0 0 2766.5 306.5 A 3.5 3.5 0 0 0 2763 303 Z M 2763 305  A 1.5 1.5 0 0 1 2764.5 306.5 A 1.5 1.5 0 0 1 2763 308 A 1.5 1.5 0 0 1 2761.5 306.5 A 1.5 1.5 0 0 1 2763 305 Z M 2636 149.6  L 2643 142  L 2636 134.4  L 2636 149.6  Z M 2638 144.8  L 2638 139.2  L 2640 142  L 2638 144.8  Z " fill-rule="nonzero" fill="#000000" stroke="none" />
</svg>