<?xml version="1.0" encoding="utf-8"?>
<svg version="1.1" xmlns:xlink="http://www.w3.org/1999/xlink" width="10px" height="96px" preserveAspectRatio="xMidYMin meet" viewBox="3884 427  8 96" xmlns="http://www.w3.org/2000/svg">
  <path d="M 3888 433  L 3888 518  L 4997 518  L 4997 652  " stroke-width="2" stroke-dasharray="6,2" stroke="#0000ff" fill="none" />
  <path d="M 3888 427  A 3.5 3.5 0 0 0 3884.5 430.5 A 3.5 3.5 0 0 0 3888 434 A 3.5 3.5 0 0 0 3891.5 430.5 A 3.5 3.5 0 0 0 3888 427 Z M 3888 429  A 1.5 1.5 0 0 1 3889.5 430.5 A 1.5 1.5 0 0 1 3888 432 A 1.5 1.5 0 0 1 3886.5 430.5 A 1.5 1.5 0 0 1 3888 429 Z M 4989.4 651  L 4997 658  L 5004.6 651  L 4989.4 651  Z M 4994.2 653  L 4999.8 653  L 4997 655  L 4994.2 653  Z " fill-rule="nonzero" fill="#0000ff" stroke="none" />
</svg>