<?xml version="1.0" encoding="utf-8"?>
<svg version="1.1" xmlns:xlink="http://www.w3.org/1999/xlink" width="19px" height="18px" xmlns="http://www.w3.org/2000/svg">
  <g transform="matrix(1 0 0 1 -5822 -741 )">
    <path d="M 6.78764204545454 6.85546875  C 6.86860795454546 6.92578125  6.90909090909091 7.015625  6.90909090909091 7.125  L 6.90909090909091 13.875  C 6.90909090909091 13.984375  6.86860795454546 14.07421875  6.78764204545454 14.14453125  C 6.70667613636364 14.21484375  6.6032196969697 14.25  6.47727272727273 14.25  L 5.61363636363636 14.25  C 5.48768939393939 14.25  5.38423295454546 14.21484375  5.30326704545454 14.14453125  C 5.22230113636364 14.07421875  5.18181818181818 13.984375  5.18181818181818 13.875  L 5.18181818181818 7.125  C 5.18181818181818 7.015625  5.22230113636364 6.92578125  5.30326704545454 6.85546875  C 5.38423295454546 6.78515625  5.48768939393939 6.75  5.61363636363636 6.75  L 6.47727272727273 6.75  C 6.6032196969697 6.75  6.70667613636364 6.78515625  6.78764204545454 6.85546875  Z M 10.2421875 6.85546875  C 10.3231534090909 6.92578125  10.3636363636364 7.015625  10.3636363636364 7.125  L 10.3636363636364 13.875  C 10.3636363636364 13.984375  10.3231534090909 14.07421875  10.2421875 14.14453125  C 10.1612215909091 14.21484375  10.0577651515152 14.25  9.93181818181818 14.25  L 9.06818181818182 14.25  C 8.94223484848485 14.25  8.83877840909091 14.21484375  8.7578125 14.14453125  C 8.67684659090909 14.07421875  8.63636363636364 13.984375  8.63636363636364 13.875  L 8.63636363636364 7.125  C 8.63636363636364 7.015625  8.67684659090909 6.92578125  8.7578125 6.85546875  C 8.83877840909091 6.78515625  8.94223484848485 6.75  9.06818181818182 6.75  L 9.93181818181818 6.75  C 10.0577651515152 6.75  10.1612215909091 6.78515625  10.2421875 6.85546875  Z M 13.6967329545455 6.85546875  C 13.7776988636364 6.92578125  13.8181818181818 7.015625  13.8181818181818 7.125  L 13.8181818181818 13.875  C 13.8181818181818 13.984375  13.7776988636364 14.07421875  13.6967329545455 14.14453125  C 13.6157670454545 14.21484375  13.5123106060606 14.25  13.3863636363636 14.25  L 12.5227272727273 14.25  C 12.3967803030303 14.25  12.2933238636364 14.21484375  12.2123579545455 14.14453125  C 12.1313920454545 14.07421875  12.0909090909091 13.984375  12.0909090909091 13.875  L 12.0909090909091 7.125  C 12.0909090909091 7.015625  12.1313920454545 6.92578125  12.2123579545455 6.85546875  C 12.2933238636364 6.78515625  12.3967803030303 6.75  12.5227272727273 6.75  L 13.3863636363636 6.75  C 13.5123106060606 6.75  13.6157670454545 6.78515625  13.6967329545455 6.85546875  Z M 15.4509943181818 16.083984375  C 15.5139678030303 15.939453125  15.5454545454545 15.78125  15.5454545454545 15.609375  L 15.5454545454545 4.5  L 3.45454545454545 4.5  L 3.45454545454545 15.609375  C 3.45454545454545 15.78125  3.4860321969697 15.939453125  3.54900568181818 16.083984375  C 3.61197916666667 16.228515625  3.67720170454545 16.333984375  3.74467329545455 16.400390625  C 3.81214488636364 16.466796875  3.859375 16.5  3.88636363636364 16.5  L 15.1136363636364 16.5  C 15.140625 16.5  15.1878551136364 16.466796875  15.2553267045455 16.400390625  C 15.3227982954545 16.333984375  15.3880208333333 16.228515625  15.4509943181818 16.083984375  Z M 7.13849431818182 1.62890625  L 6.47727272727273 3  L 12.5227272727273 3  L 11.875 1.62890625  C 11.8120265151515 1.55859375  11.7355587121212 1.515625  11.6455965909091 1.5  L 7.36789772727273 1.5  C 7.27793560606061 1.515625  7.2014678030303 1.55859375  7.13849431818182 1.62890625  Z M 18.8785511363636 3.10546875  C 18.9595170454545 3.17578125  19 3.265625  19 3.375  L 19 4.125  C 19 4.234375  18.9595170454545 4.32421875  18.8785511363636 4.39453125  C 18.7975852272727 4.46484375  18.6941287878788 4.5  18.5681818181818 4.5  L 17 4.5  L 17 15.609375  C 17.2727272727273 16.2578125  17.0613162878788 16.818359375  16.6384943181818 17.291015625  C 16.2156723484849 17.763671875  15.7073863636364 18  15.1136363636364 18  L 3.88636363636364 18  C 3.29261363636364 18  2.78432765151515 17.771484375  2.36150568181818 17.314453125  C 1.93868371212121 16.857421875  1.72727272727273 16.3046875  2 15.65625  L 2 4.5  L 0.431818181818182 4.5  C 0.305871212121212 4.5  0.202414772727273 4.46484375  0.121448863636364 4.39453125  C 0.0404829545454545 4.32421875  0 4.234375  0 4.125  L 0 3.375  C 0 3.265625  0.0404829545454545 3.17578125  0.121448863636364 3.10546875  C 0.202414772727273 3.03515625  0.305871212121212 3  0.431818181818182 3  L 4.6015625 3  L 5.54616477272727 1.04296875  C 5.68110795454546 0.753906249999998  5.92400568181818 0.507812499999998  6.27485795454546 0.304687500000001  C 6.62571022727273 0.101562499999999  6.98106060606061 0  7.34090909090909 0  L 11.6590909090909 0  C 12.0189393939394 0  12.3742897727273 0.101562499999999  12.7251420454545 0.304687500000001  C 13.0759943181818 0.507812499999998  13.3188920454545 0.753906249999998  13.4538352272727 1.04296875  L 14.3984375 3  L 18.5681818181818 3  C 18.6941287878788 3  18.7975852272727 3.03515625  18.8785511363636 3.10546875  Z " fill-rule="nonzero" fill="#000000" stroke="none" transform="matrix(1 0 0 1 5822 741 )" />
  </g>
</svg>