<?xml version="1.0" encoding="utf-8"?>
<svg version="1.1" xmlns:xlink="http://www.w3.org/1999/xlink" width="20px" height="21px" preserveAspectRatio="xMidYMin meet" viewBox="2985 267  18 21" xmlns="http://www.w3.org/2000/svg">
  <path d="M 2994 276  L 2994 237  L 3487 237  L 3487 175  L 3491 175  " stroke-width="2" stroke-dasharray="6,2" stroke="#70b603" fill="none" />
  <path d="M 2994 275  A 3.5 3.5 0 0 0 2990.5 278.5 A 3.5 3.5 0 0 0 2994 282 A 3.5 3.5 0 0 0 2997.5 278.5 A 3.5 3.5 0 0 0 2994 275 Z M 2994 277  A 1.5 1.5 0 0 1 2995.5 278.5 A 1.5 1.5 0 0 1 2994 280 A 1.5 1.5 0 0 1 2992.5 278.5 A 1.5 1.5 0 0 1 2994 277 Z M 3490 182.6  L 3497 175  L 3490 167.4  L 3490 182.6  Z M 3492 177.8  L 3492 172.2  L 3494 175  L 3492 177.8  Z " fill-rule="nonzero" fill="#70b603" stroke="none" />
</svg>