<?xml version="1.0" encoding="utf-8"?>
<svg version="1.1" xmlns:xlink="http://www.w3.org/1999/xlink" width="10px" height="351px" preserveAspectRatio="xMidYMin meet" viewBox="3461 54  8 351" xmlns="http://www.w3.org/2000/svg">
  <path d="M 3465 400  L 3465 59  L 3476 59  " stroke-width="2" stroke-dasharray="6,2" stroke="#000000" fill="none" />
  <path d="M 3465 399  A 3.5 3.5 0 0 0 3461.5 402.5 A 3.5 3.5 0 0 0 3465 406 A 3.5 3.5 0 0 0 3468.5 402.5 A 3.5 3.5 0 0 0 3465 399 Z M 3465 401  A 1.5 1.5 0 0 1 3466.5 402.5 A 1.5 1.5 0 0 1 3465 404 A 1.5 1.5 0 0 1 3463.5 402.5 A 1.5 1.5 0 0 1 3465 401 Z M 3475 66.6  L 3482 59  L 3475 51.4  L 3475 66.6  Z M 3477 61.8  L 3477 56.2  L 3479 59  L 3477 61.8  Z " fill-rule="nonzero" fill="#000000" stroke="none" />
</svg>