<?xml version="1.0" encoding="utf-8"?>
<svg version="1.1" xmlns:xlink="http://www.w3.org/1999/xlink" width="20px" height="21px" preserveAspectRatio="xMidYMin meet" viewBox="3408 289  18 21" xmlns="http://www.w3.org/2000/svg">
  <path d="M 3417 309  L 3417 504  L 3973 504  L 3973 556  " stroke-width="2" stroke-dasharray="6,2" stroke="#d9001b" fill="none" />
  <path d="M 3417 303  A 3.5 3.5 0 0 0 3413.5 306.5 A 3.5 3.5 0 0 0 3417 310 A 3.5 3.5 0 0 0 3420.5 306.5 A 3.5 3.5 0 0 0 3417 303 Z M 3417 305  A 1.5 1.5 0 0 1 3418.5 306.5 A 1.5 1.5 0 0 1 3417 308 A 1.5 1.5 0 0 1 3415.5 306.5 A 1.5 1.5 0 0 1 3417 305 Z M 3965.4 555  L 3973 562  L 3980.6 555  L 3965.4 555  Z M 3970.2 557  L 3975.8 557  L 3973 559  L 3970.2 557  Z " fill-rule="nonzero" fill="#d9001b" stroke="none" />
</svg>