<?xml version="1.0" encoding="utf-8"?>
<svg version="1.1" xmlns:xlink="http://www.w3.org/1999/xlink" width="10px" height="182px" preserveAspectRatio="xMidYMin meet" viewBox="3697 427  8 182" xmlns="http://www.w3.org/2000/svg">
  <path d="M 3701 433  L 3701 599  " stroke-width="2" stroke-dasharray="6,2" stroke="#70b603" fill="none" />
  <path d="M 3701 427  A 3.5 3.5 0 0 0 3697.5 430.5 A 3.5 3.5 0 0 0 3701 434 A 3.5 3.5 0 0 0 3704.5 430.5 A 3.5 3.5 0 0 0 3701 427 Z M 3701 429  A 1.5 1.5 0 0 1 3702.5 430.5 A 1.5 1.5 0 0 1 3701 432 A 1.5 1.5 0 0 1 3699.5 430.5 A 1.5 1.5 0 0 1 3701 429 Z M 3693.4 598  L 3701 605  L 3708.6 598  L 3693.4 598  Z M 3698.2 600  L 3703.8 600  L 3701 602  L 3698.2 600  Z " fill-rule="nonzero" fill="#70b603" stroke="none" />
</svg>