<?xml version="1.0" encoding="utf-8"?>
<svg version="1.1" xmlns:xlink="http://www.w3.org/1999/xlink" width="1620px" height="10px" preserveAspectRatio="xMinYMid meet" viewBox="3978 477  1620 8" xmlns="http://www.w3.org/2000/svg">
  <path d="M 3983 433  L 3983 481  L 5593 481  L 5593 704  " stroke-width="2" stroke-dasharray="6,2" stroke="#000000" fill="none" />
  <path d="M 3983 427  A 3.5 3.5 0 0 0 3979.5 430.5 A 3.5 3.5 0 0 0 3983 434 A 3.5 3.5 0 0 0 3986.5 430.5 A 3.5 3.5 0 0 0 3983 427 Z M 3983 429  A 1.5 1.5 0 0 1 3984.5 430.5 A 1.5 1.5 0 0 1 3983 432 A 1.5 1.5 0 0 1 3981.5 430.5 A 1.5 1.5 0 0 1 3983 429 Z M 5585.4 703  L 5593 710  L 5600.6 703  L 5585.4 703  Z M 5590.2 705  L 5595.8 705  L 5593 707  L 5590.2 705  Z " fill-rule="nonzero" fill="#000000" stroke="none" />
</svg>