<?xml version="1.0" encoding="utf-8"?>
<svg version="1.1" xmlns:xlink="http://www.w3.org/1999/xlink" width="10px" height="142px" preserveAspectRatio="xMidYMin meet" viewBox="3098 303  8 142" xmlns="http://www.w3.org/2000/svg">
  <path d="M 3102 309  L 3102 435  " stroke-width="2" stroke-dasharray="6,2" stroke="#70b603" fill="none" />
  <path d="M 3102 303  A 3.5 3.5 0 0 0 3098.5 306.5 A 3.5 3.5 0 0 0 3102 310 A 3.5 3.5 0 0 0 3105.5 306.5 A 3.5 3.5 0 0 0 3102 303 Z M 3102 305  A 1.5 1.5 0 0 1 3103.5 306.5 A 1.5 1.5 0 0 1 3102 308 A 1.5 1.5 0 0 1 3100.5 306.5 A 1.5 1.5 0 0 1 3102 305 Z M 3094.4 434  L 3102 441  L 3109.6 434  L 3094.4 434  Z M 3099.2 436  L 3104.8 436  L 3102 438  L 3099.2 436  Z " fill-rule="nonzero" fill="#70b603" stroke="none" />
</svg>