<?xml version="1.0" encoding="utf-8"?>
<svg version="1.1" xmlns:xlink="http://www.w3.org/1999/xlink" width="10px" height="304px" preserveAspectRatio="xMidYMin meet" viewBox="6376 411  8 304" xmlns="http://www.w3.org/2000/svg">
  <path d="M 4084 416  L 6380 416  L 6380 710  " stroke-width="2" stroke-dasharray="6,2" stroke="#d9001b" fill="none" />
  <path d="M 4081.5 412.5  A 3.5 3.5 0 0 0 4078 416 A 3.5 3.5 0 0 0 4081.5 419.5 A 3.5 3.5 0 0 0 4085 416 A 3.5 3.5 0 0 0 4081.5 412.5 Z M 4081.5 414.5  A 1.5 1.5 0 0 1 4083 416 A 1.5 1.5 0 0 1 4081.5 417.5 A 1.5 1.5 0 0 1 4080 416 A 1.5 1.5 0 0 1 4081.5 414.5 Z M 6372.4 709  L 6380 716  L 6387.6 709  L 6372.4 709  Z M 6377.2 711  L 6382.8 711  L 6380 713  L 6377.2 711  Z " fill-rule="nonzero" fill="#d9001b" stroke="none" />
</svg>