<?xml version="1.0" encoding="utf-8"?>
<svg version="1.1" xmlns:xlink="http://www.w3.org/1999/xlink" width="10px" height="220px" preserveAspectRatio="xMidYMin meet" viewBox="3338 303  8 220" xmlns="http://www.w3.org/2000/svg">
  <path d="M 3342 309  L 3342 518  L 3565 518  L 3565 604  " stroke-width="2" stroke-dasharray="6,2" stroke="#0000ff" fill="none" />
  <path d="M 3342 303  A 3.5 3.5 0 0 0 3338.5 306.5 A 3.5 3.5 0 0 0 3342 310 A 3.5 3.5 0 0 0 3345.5 306.5 A 3.5 3.5 0 0 0 3342 303 Z M 3342 305  A 1.5 1.5 0 0 1 3343.5 306.5 A 1.5 1.5 0 0 1 3342 308 A 1.5 1.5 0 0 1 3340.5 306.5 A 1.5 1.5 0 0 1 3342 305 Z M 3557.4 603  L 3565 610  L 3572.6 603  L 3557.4 603  Z M 3562.2 605  L 3567.8 605  L 3565 607  L 3562.2 605  Z " fill-rule="nonzero" fill="#0000ff" stroke="none" />
</svg>