<?xml version="1.0" encoding="utf-8"?>
<svg version="1.1" xmlns:xlink="http://www.w3.org/1999/xlink" width="12px" height="12px" viewBox="1715 312  12 12" xmlns="http://www.w3.org/2000/svg">
  <path d="M 1721 312  C 1724.36 312  1727 314.64  1727 318  C 1727 321.36  1724.36 324  1721 324  C 1717.64 324  1715 321.36  1715 318  C 1715 314.64  1717.64 312  1721 312  Z " fill-rule="nonzero" fill="#f0f0f0" stroke="none" />
  <path d="M 1721 312.5  C 1724.08 312.5  1726.5 314.92  1726.5 318  C 1726.5 321.08  1724.08 323.5  1721 323.5  C 1717.92 323.5  1715.5 321.08  1715.5 318  C 1715.5 314.92  1717.92 312.5  1721 312.5  Z " stroke-width="1" stroke="#797979" fill="none" />
  <path d="M 1721 321  C 1719.32 321  1718 319.68  1718 318  C 1718 316.32  1719.32 315  1721 315  C 1722.68 315  1724 316.32  1724 318  C 1724 319.68  1722.68 321  1721 321  " fill-rule="nonzero" fill="#797979" stroke="none" />
</svg>