<?xml version="1.0" encoding="utf-8"?>
<svg version="1.1" xmlns:xlink="http://www.w3.org/1999/xlink" width="18px" height="17px" xmlns="http://www.w3.org/2000/svg">
  <g transform="matrix(1 0 0 1 -219 -331 )">
    <path d="M 16.6188616071429 15.6955915178571  C 16.6824776785714 15.635509672619  16.7142857142857 15.5643601190476  16.7142857142857 15.4821428571429  L 16.7142857142857 5.16071428571429  C 16.7142857142857 5.07849702380952  16.6824776785714 5.00734747023809  16.6188616071429 4.947265625  C 16.5552455357143 4.8871837797619  16.4799107142857 4.85714285714286  16.3928571428571 5  L 5.46428571428571 5  C 5.37723214285714 4.85714285714286  5.30189732142857 4.8871837797619  5.23828125 4.947265625  C 5.17466517857143 5.00734747023809  5.14285714285714 5.07849702380952  5.14285714285714 5.16071428571429  L 5.14285714285714 15.4821428571429  C 5.14285714285714 15.5643601190476  5.17466517857143 15.635509672619  5.23828125 15.6955915178571  C 5.30189732142857 15.7556733630952  5.37723214285714 15.7857142857143  5.46428571428571 15.7857142857143  L 16.3928571428571 15.7857142857143  C 16.4799107142857 15.7857142857143  16.5552455357143 15.7556733630952  16.6188616071429 15.6955915178571  Z M 17.5279017857143 4.08872767857143  C 17.8426339285714 4.38597470238095  18 4.74330357142857  18 5.16071428571429  L 18 15.4821428571429  C 18 15.8995535714286  17.8426339285714 16.2568824404762  17.5279017857143 16.5541294642857  C 17.2131696428571 16.8513764880952  16.8348214285714 17  16.3928571428571 17  L 5.46428571428571 17  C 5.02232142857143 17  4.64397321428571 16.8513764880952  4.32924107142857 16.5541294642857  C 4.01450892857143 16.2568824404762  3.85714285714286 15.8995535714286  4 15.4821428571429  L 4 5.16071428571429  C 3.85714285714286 4.74330357142857  4.01450892857143 4.38597470238095  4.32924107142857 4.08872767857143  C 4.64397321428571 3.7914806547619  5.02232142857143 3.64285714285714  5.46428571428571 3.64285714285714  L 16.3928571428571 3.64285714285714  C 16.8348214285714 3.64285714285714  17.2131696428571 3.7914806547619  17.5279017857143 4.08872767857143  Z M 13.6707589285714 0.445870535714286  C 13.9854910714286 0.743117559523809  14.1428571428571 1.10044642857143  14.1428571428571 1.51785714285714  L 14.1428571428571 3.03571428571429  L 12.8571428571429 3.03571428571429  L 12.8571428571429 1.51785714285714  C 12.8571428571429 1.43563988095238  12.8253348214286 1.36449032738095  12.76171875 1.30440848214286  C 12.6981026785714 1.24432663690476  12.6227678571429 1.21428571428571  12.5357142857143 1.21428571428571  L 1.60714285714286 1.21428571428571  C 1.52008928571429 1.21428571428571  1.44475446428571 1.24432663690476  1.38113839285714 1.30440848214286  C 1.31752232142857 1.36449032738095  1.28571428571429 1.43563988095238  1.28571428571429 1.51785714285714  L 1.28571428571429 11.8392857142857  C 1.28571428571429 11.9215029761905  1.31752232142857 11.9926525297619  1.38113839285714 12.052734375  C 1.44475446428571 12.1128162202381  1.52008928571429 12.1428571428571  1.60714285714286 12.1428571428571  L 3.21428571428571 12.1428571428571  L 3.21428571428571 13.3571428571429  L 1.60714285714286 13.3571428571429  C 1.16517857142857 13.3571428571429  0.786830357142857 13.2085193452381  0.472098214285714 12.9112723214286  C 0.157366071428571 12.614025297619  0 12.2566964285714  0 11.8392857142857  L 0 1.51785714285714  C 0 1.10044642857143  0.157366071428571 0.743117559523809  0.472098214285714 0.445870535714286  C 0.786830357142857 0.148623511904762  1.16517857142857 0  1.60714285714286 0  L 12.5357142857143 0  C 12.9776785714286 0  13.3560267857143 0.148623511904762  13.6707589285714 0.445870535714286  Z " fill-rule="nonzero" fill="#000000" stroke="none" transform="matrix(1 0 0 1 219 331 )" />
  </g>
</svg>