<?xml version="1.0" encoding="utf-8"?>
<svg version="1.1" xmlns:xlink="http://www.w3.org/1999/xlink" width="12px" height="12px" viewBox="2275 320  12 12" xmlns="http://www.w3.org/2000/svg">
  <path d="M 2281 320  C 2284.36 320  2287 322.64  2287 326  C 2287 329.36  2284.36 332  2281 332  C 2277.64 332  2275 329.36  2275 326  C 2275 322.64  2277.64 320  2281 320  Z " fill-rule="nonzero" fill="#ffffff" stroke="none" />
  <path d="M 2281 320.5  C 2284.08 320.5  2286.5 322.92  2286.5 326  C 2286.5 329.08  2284.08 331.5  2281 331.5  C 2277.92 331.5  2275.5 329.08  2275.5 326  C 2275.5 322.92  2277.92 320.5  2281 320.5  Z " stroke-width="1" stroke="#797979" fill="none" />
  <path d="M 2281 329  C 2279.32 329  2278 327.68  2278 326  C 2278 324.32  2279.32 323  2281 323  C 2282.68 323  2284 324.32  2284 326  C 2284 327.68  2282.68 329  2281 329  " fill-rule="nonzero" fill="#797979" stroke="none" />
</svg>