<?xml version="1.0" encoding="utf-8"?>
<svg version="1.1" xmlns:xlink="http://www.w3.org/1999/xlink" width="12px" height="12px" viewBox="2151 320  12 12" xmlns="http://www.w3.org/2000/svg">
  <path d="M 2157 320  C 2160.36 320  2163 322.64  2163 326  C 2163 329.36  2160.36 332  2157 332  C 2153.64 332  2151 329.36  2151 326  C 2151 322.64  2153.64 320  2157 320  Z " fill-rule="nonzero" fill="#ffffff" stroke="none" />
  <path d="M 2157 320.5  C 2160.08 320.5  2162.5 322.92  2162.5 326  C 2162.5 329.08  2160.08 331.5  2157 331.5  C 2153.92 331.5  2151.5 329.08  2151.5 326  C 2151.5 322.92  2153.92 320.5  2157 320.5  Z " stroke-width="1" stroke="#797979" fill="none" />
  <path d="M 2157 329  C 2155.32 329  2154 327.68  2154 326  C 2154 324.32  2155.32 323  2157 323  C 2158.68 323  2160 324.32  2160 326  C 2160 327.68  2158.68 329  2157 329  " fill-rule="nonzero" fill="#797979" stroke="none" />
</svg>