<?xml version="1.0" encoding="utf-8"?>
<svg version="1.1" xmlns:xlink="http://www.w3.org/1999/xlink" width="12px" height="12px" viewBox="1682 320  12 12" xmlns="http://www.w3.org/2000/svg">
  <path d="M 1688 320  C 1691.36 320  1694 322.64  1694 326  C 1694 329.36  1691.36 332  1688 332  C 1684.64 332  1682 329.36  1682 326  C 1682 322.64  1684.64 320  1688 320  Z " fill-rule="nonzero" fill="#f0f0f0" stroke="none" />
  <path d="M 1688 320.5  C 1691.08 320.5  1693.5 322.92  1693.5 326  C 1693.5 329.08  1691.08 331.5  1688 331.5  C 1684.92 331.5  1682.5 329.08  1682.5 326  C 1682.5 322.92  1684.92 320.5  1688 320.5  Z " stroke-width="1" stroke="#797979" fill="none" />
  <path d="M 1688 329  C 1686.32 329  1685 327.68  1685 326  C 1685 324.32  1686.32 323  1688 323  C 1689.68 323  1691 324.32  1691 326  C 1691 327.68  1689.68 329  1688 329  " fill-rule="nonzero" fill="#797979" stroke="none" />
</svg>