<?xml version="1.0" encoding="utf-8"?>
<svg version="1.1" xmlns:xlink="http://www.w3.org/1999/xlink" width="12px" height="12px" viewBox="1558 320  12 12" xmlns="http://www.w3.org/2000/svg">
  <path d="M 1564 320  C 1567.36 320  1570 322.64  1570 326  C 1570 329.36  1567.36 332  1564 332  C 1560.64 332  1558 329.36  1558 326  C 1558 322.64  1560.64 320  1564 320  Z " fill-rule="nonzero" fill="#f0f0f0" stroke="none" />
  <path d="M 1564 320.5  C 1567.08 320.5  1569.5 322.92  1569.5 326  C 1569.5 329.08  1567.08 331.5  1564 331.5  C 1560.92 331.5  1558.5 329.08  1558.5 326  C 1558.5 322.92  1560.92 320.5  1564 320.5  Z " stroke-width="1" stroke="#797979" fill="none" />
  <path d="M 1564 329  C 1562.32 329  1561 327.68  1561 326  C 1561 324.32  1562.32 323  1564 323  C 1565.68 323  1567 324.32  1567 326  C 1567 327.68  1565.68 329  1564 329  " fill-rule="nonzero" fill="#797979" stroke="none" />
</svg>