<?xml version="1.0" encoding="utf-8"?>
<svg version="1.1" xmlns:xlink="http://www.w3.org/1999/xlink" width="29px" height="28px" xmlns="http://www.w3.org/2000/svg">
  <g transform="matrix(1 0 0 1 -990 -100 )">
    <path d="M 12.2626953125 16.3671875  C 12.3445095486111 16.6223958333333  12.3728298611111 16.78125  12.34765625 16.84375  C 12.3350694444444 16.875  12.2564019097222 16.8723958333333  12.1116536458333 16.8359375  C 11.9669053819444 16.7994791666667  11.7686631944444 16.7395833333333  11.5169270833333 16.65625  L 11.1393229166667 16.515625  C 10.5855034722222 16.3072916666667  10.0379774305556 16.0520833333333  9.49674479166667 15.75  C 9.40863715277778 15.6979166666667  9.15060763888889 15.5338541666667  8.72265625 15.2578125  C 8.29470486111111 14.9817708333333  8.05555555555556 14.8333333333333  8.00520833333333 14.8125  C 7.16189236111111 15.8854166666667  6.31857638888889 16.828125  5.47526041666667 17.640625  C 4.45572916666667 18.6302083333333  3.794921875 19.203125  3.49283854166667 19.359375  C 3.44249131944444 19.3802083333333  3.31976996527778 19.4010416666667  3.12467447916667 19.421875  C 2.92957899305556 19.4427083333333  2.81315104166667 19.4427083333333  2.775390625 19.421875  C 2.85091145833333 19.3802083333333  3.36697048611111 18.9010416666667  4.32356770833333 17.984375  C 4.587890625 17.734375  5.1259765625 17.1354166666667  5.93782552083333 16.1875  C 6.74967447916667 15.2395833333333  7.24370659722222 14.625  7.419921875 14.34375  C 7.63389756944445 14.03125  7.95486111111111 13.5182291666667  8.3828125 12.8046875  C 8.81076388888889 12.0911458333333  9.03732638888889 11.6875  9.0625 11.59375  C 8.96180555555556 11.5833333333333  8.26953125 11.7552083333333  6.98567708333333 12.109375  C 6.88498263888889 12.1302083333333  6.7119140625 12.1692708333333  6.46647135416667 12.2265625  C 6.22102864583333 12.2838541666667  6.00390625 12.3333333333333  5.81510416666667 12.375  C 5.62630208333333 12.4166666666667  5.51931423611111 12.4427083333333  5.494140625 12.453125  C 5.46896701388889 12.4739583333333  5.45638020833333 12.5286458333333  5.45638020833333 12.6171875  C 5.45638020833333 12.7057291666667  5.45008680555556 12.7552083333333  5.4375 12.765625  C 5.37456597222222 12.8697916666667  5.17947048611111 12.9479166666667  4.85221354166667 13  C 4.56271701388889 13.0729166666667  4.26692708333333 13.0729166666667  3.96484375 13  C 3.73828125 12.9583333333333  3.56206597222222 12.8489583333333  3.43619791666667 12.671875  C 3.38585069444444 12.609375  3.35438368055556 12.4895833333333  3.341796875 12.3125  C 3.41731770833333 12.2916666666667  3.57150607638889 12.265625  3.80436197916667 12.234375  C 4.03721788194444 12.203125  4.22287326388889 12.171875  4.361328125 12.140625  C 5.09136284722222 11.9739583333333  5.75217013888889 11.8072916666667  6.34375 11.640625  C 7.60243055555556 11.2760416666667  8.24435763888889 11.09375  8.26953125 11.09375  C 8.39539930555556 11.0729166666667  8.666015625 10.9713541666667  9.08138020833333 10.7890625  C 9.49674479166667 10.6067708333333  9.77365451388889 10.4947916666667  9.912109375 10.453125  C 10.025390625 10.421875  10.1606987847222 10.3802083333333  10.3180338541667 10.328125  C 10.4753689236111 10.2760416666667  10.5666232638889 10.2473958333333  10.591796875 10.2421875  C 10.6169704861111 10.2369791666667  10.6547309027778 10.2395833333333  10.705078125 10.25  C 10.7302517361111 10.375  10.7239583333333 10.546875  10.6861979166667 10.765625  C 10.6861979166667 10.7864583333333  10.6075303819444 10.9270833333333  10.4501953125 11.1875  C 10.2928602430556 11.4479166666667  10.1260850694444 11.7265625  9.94986979166667 12.0234375  C 9.77365451388889 12.3203125  9.66666666666667 12.4947916666667  9.62890625 12.546875  C 9.31423611111111 13.0677083333333  8.82964409722222 13.75  8.17513020833333 14.59375  L 9.38346354166667 15.03125  C 9.53450520833333 15.09375  10.0033637152778 15.2604166666667  10.7900390625 15.53125  C 11.5767144097222 15.8020833333333  12.0015190972222 15.9479166666667  12.064453125 15.96875  C 12.1148003472222 15.9791666666667  12.1808810763889 16.1119791666667  12.2626953125 16.3671875  Z M 8.08072916666667 8.984375  C 8.29470486111111 8.984375  8.42686631944445 9.07291666666666  8.47721354166667 9.25  C 8.51497395833333 9.40625  8.48980034722222 9.55208333333333  8.40169270833333 9.6875  C 8.25065104166667 9.92708333333333  7.93598090277778 10.125  7.45768229166667 10.28125  C 7.080078125 10.40625  6.70247395833333 10.46875  6.32486979166667 10.46875  C 5.99761284722222 10.4375  5.68923611111111 10.3020833333333  5.39973958333333 10.0625  C 5.22352430555556 9.90625  5.11024305555556 9.69270833333333  5.05989583333333 9.421875  L 5.07877604166667 9.375  C 5.11653645833333 9.40625  5.2392578125 9.43229166666666  5.44694010416667 9.453125  C 5.65462239583333 9.47395833333333  5.82139756944444 9.47395833333333  5.947265625 9.453125  C 6.07313368055556 9.43229166666666  6.43815104166667 9.34895833333333  7.04231770833333 9.203125  C 7.49544270833333 9.078125  7.84157986111111 9.00520833333333  8.08072916666667 8.984375  Z M 20.220703125 14.15625  L 21.6555989583333 11.265625  L 22.8450520833333 14.8125  L 20.220703125 14.15625  Z M 1 7.65625  L 1 23.765625  L 14 20.140625  L 14 4.015625  L 1 7.65625  Z M 23.4680989583333 16.703125  L 24.1666666666667 18.8125  L 26.0924479166667 19.296875  L 22.6751302083333 9.03125  L 20.787109375 8.546875  L 16.708984375 16.921875  L 18.634765625 17.40625  L 19.484375 15.6875  L 23.4680989583333 16.703125  Z M 25.48828125 0.718750000000001  L 14.669921875 3.78125  L 25.48828125 6.65625  L 25.48828125 0.718750000000001  Z M 21.353515625 25.59375  L 20.5416666666667 24.453125  L 23.5247395833333 24.65625  L 22.5052083333333 27.15625  L 21.75 26.125  C 20.1137152777778 26.9895833333333  18.3767361111111 27.5520833333333  16.5390625 27.8125  C 15.8090277777778 27.9375  15.236328125 28  14.8209635416667 28  L 13.2350260416667 28  C 12.2406684027778 28  10.9851345486111 27.796875  9.46842447916667 27.390625  C 7.95171440972222 26.984375  6.796875 26.5416666666667  6.00390625 26.0625  C 5.90321180555556 25.9895833333333  5.85286458333333 25.90625  5.85286458333333 25.8125  C 5.85286458333333 25.7291666666667  5.88433159722222 25.6588541666667  5.947265625 25.6015625  C 6.01019965277778 25.5442708333333  6.09201388888889 25.515625  6.19270833333333 25.515625  C 6.24305555555556 25.515625  6.35633680555556 25.5546875  6.53255208333333 25.6328125  C 6.70876736111111 25.7109375  6.90071614583333 25.796875  7.1083984375 25.890625  C 7.31608072916667 25.984375  7.44509548611111 26.0416666666667  7.49544270833333 26.0625  C 8.41427951388889 26.4479166666667  9.41807725694445 26.7682291666667  10.5068359375 27.0234375  C 11.5955946180556 27.2786458333333  12.5868055555556 27.40625  13.48046875 27.40625  C 14.6762152777778 27.40625  15.7272135416667 27.3307291666667  16.6334635416667 27.1796875  C 17.5397135416667 27.0286458333333  18.5277777777778 26.765625  19.59765625 26.390625  C 19.7864583333333 26.3177083333333  19.9784071180556 26.2369791666667  20.1735026041667 26.1484375  C 20.3685980902778 26.0598958333333  20.5825737847222 25.9609375  20.8154296875 25.8515625  C 21.0482855902778 25.7421875  21.2276475694444 25.65625  21.353515625 25.59375  Z M 26.224609375 6.859375  L 29 7.59375  L 29 24.453125  L 14.38671875 20.609375  C 14.2105034722222 20.671875  11.8504774305556 21.3359375  7.306640625 22.6015625  C 2.76280381944444 23.8671875  0.446831597222222 24.5  0.358723958333333 24.5  C 0.195095486111111 24.5  0.0818142361111111 24.4322916666667  0.0188802083333333 24.296875  C 0.0188802083333333 24.2864583333333  0.0125868055555556 24.2708333333333  0 24.25  L 0 7.40625  C 0.0377604166666667 7.3125  0.0629340277777778 7.26041666666666  0.0755208333333333 7.25  C 0.138454861111111 7.1875  0.264322916666667 7.13020833333333  0.453125 7.078125  C 1.79991319444444 6.703125  2.73763020833333 6.44270833333333  3.26627604166667 6.296875  L 3.26627604166667 0.296875000000001  L 13.8014322916667 3.390625  C 13.8266059027778 3.390625  14.8366970486111 3.10416666666666  16.8317057291667 2.53125  C 18.8267144097222 1.95833333333333  20.8154296875 1.39322916666666  22.7978515625 0.8359375  C 24.7802734375 0.278645833333335  25.7966579861111 0  25.8470052083333 0  C 26.0987413194444 0  26.224609375 0.109375  26.224609375 0.328125  L 26.224609375 6.859375  Z " fill-rule="nonzero" fill="#000000" stroke="none" transform="matrix(1 0 0 1 990 100 )" />
  </g>
</svg>