<?xml version="1.0" encoding="utf-8"?>
<svg version="1.1" xmlns:xlink="http://www.w3.org/1999/xlink" width="12px" height="8px" xmlns="http://www.w3.org/2000/svg">
  <g transform="matrix(1 0 0 1 -202 -240 )">
    <path d="M 208 240  C 211.36 240  214 241.76  214 244  C 214 246.24  211.36 248  208 248  C 204.64 248  202 246.24  202 244  C 202 241.76  204.64 240  208 240  Z " fill-rule="nonzero" fill="#ffffff" stroke="none" />
    <path d="M 208 240.5  C 211.08 240.5  213.5 242.04  213.5 244  C 213.5 245.96  211.08 247.5  208 247.5  C 204.92 247.5  202.5 245.96  202.5 244  C 202.5 242.04  204.92 240.5  208 240.5  Z " stroke-width="1" stroke="#797979" fill="none" />
  </g>
</svg>