<?xml version="1.0" encoding="utf-8"?>
<svg version="1.1" xmlns:xlink="http://www.w3.org/1999/xlink" width="33px" height="34px" xmlns="http://www.w3.org/2000/svg">
  <g transform="matrix(1 0 0 1 -707 -621 )">
    <path d="M 723.5 621  C 732.74 621  740 628.48  740 638  C 740 647.52  732.74 655  723.5 655  C 714.26 655  707 647.52  707 638  C 707 628.48  714.26 621  723.5 621  Z " fill-rule="nonzero" fill="#ffffff" stroke="none" />
    <path d="M 723.5 621.5  C 732.46 621.5  739.5 628.76  739.5 638  C 739.5 647.24  732.46 654.5  723.5 654.5  C 714.54 654.5  707.5 647.24  707.5 638  C 707.5 628.76  714.54 621.5  723.5 621.5  Z " stroke-width="1" stroke="#797979" fill="none" />
  </g>
</svg>