<?xml version="1.0" encoding="utf-8"?>
<svg version="1.1" xmlns:xlink="http://www.w3.org/1999/xlink" width="25px" height="23px" xmlns="http://www.w3.org/2000/svg">
  <g transform="matrix(1 0 0 1 -724 -730 )">
    <path d="M 736.5 730  C 743.5 730  749 735.06  749 741.5  C 749 747.94  743.5 753  736.5 753  C 729.5 753  724 747.94  724 741.5  C 724 735.06  729.5 730  736.5 730  Z " fill-rule="nonzero" fill="#ffffff" stroke="none" />
    <path d="M 736.5 730.5  C 743.22 730.5  748.5 735.34  748.5 741.5  C 748.5 747.66  743.22 752.5  736.5 752.5  C 729.78 752.5  724.5 747.66  724.5 741.5  C 724.5 735.34  729.78 730.5  736.5 730.5  Z " stroke-width="1" stroke="#797979" fill="none" />
  </g>
</svg>