<?xml version="1.0" encoding="utf-8"?>
<svg version="1.1" xmlns:xlink="http://www.w3.org/1999/xlink" width="17px" height="18px" xmlns="http://www.w3.org/2000/svg">
  <g transform="matrix(1 0 0 1 -101 -463 )">
    <path d="M 4.72222222222222 5.72727272727273  L 4.72222222222222 8.18181818181818  L 12.2777777777778 8.18181818181818  L 12.2777777777778 5.72727272727273  C 12.2777777777778 4.82386363636364  11.9088541666667 4.05255681818182  11.1710069444444 3.41335227272727  C 10.4331597222222 2.77414772727273  9.54282407407408 2.45454545454545  8.5 2.45454545454545  C 7.45717592592593 2.45454545454545  6.56684027777778 2.77414772727273  5.82899305555556 3.41335227272727  C 5.09114583333333 4.05255681818182  4.72222222222222 4.82386363636364  4.72222222222222 5.72727272727273  Z M 16.5868055555556 8.53977272727273  C 16.8622685185185 8.77840909090909  17 9.06818181818182  17 9.40909090909091  L 17 16.7727272727273  C 17 17.1136363636364  16.8622685185185 17.4034090909091  16.5868055555556 17.6420454545455  C 16.3113425925926 17.8806818181818  15.9768518518519 18  15.5833333333333 18  L 1.41666666666667 18  C 1.02314814814815 18  0.688657407407408 17.8806818181818  0.413194444444444 17.6420454545455  C 0.137731481481481 17.4034090909091  0 17.1136363636364  0 16.7727272727273  L 0 9.40909090909091  C 0 9.06818181818182  0.137731481481481 8.77840909090909  0.413194444444444 8.53977272727273  C 0.688657407407408 8.30113636363636  1.02314814814815 8.18181818181818  1.41666666666667 8.18181818181818  L 1.88888888888889 8.18181818181818  L 1.88888888888889 5.72727272727273  C 1.88888888888889 4.15909090909091  2.53819444444444 2.8125  3.83680555555556 1.6875  C 5.13541666666667 0.5625  6.68981481481481 0  8.5 0  C 10.3101851851852 0  11.8645833333333 0.5625  13.1631944444444 1.6875  C 14.4618055555556 2.8125  15.1111111111111 4.15909090909091  15.1111111111111 5.72727272727273  L 15.1111111111111 8.18181818181818  L 15.5833333333333 8.18181818181818  C 15.9768518518519 8.18181818181818  16.3113425925926 8.30113636363636  16.5868055555556 8.53977272727273  Z " fill-rule="nonzero" fill="#555555" stroke="none" transform="matrix(1 0 0 1 101 463 )" />
  </g>
</svg>