<?xml version="1.0" encoding="utf-8"?>
<svg version="1.1" xmlns:xlink="http://www.w3.org/1999/xlink" width="32px" height="27px" xmlns="http://www.w3.org/2000/svg">
  <g transform="matrix(1 0 0 1 -853 -262 )">
    <path d="M 19.625 16.55859375  C 21.3108974358974 15.1361177884615  22.1538461538462 13.4242788461538  22.1538461538462 11.4230769230769  C 22.1538461538462 9.421875  21.3108974358974 7.71003605769231  19.625 6.28756009615385  C 17.9391025641026 4.86508413461538  15.9102564102564 4.15384615384615  13.5384615384615 4.15384615384615  C 11.1666666666667 4.15384615384615  9.13782051282051 4.86508413461538  7.45192307692308 6.28756009615385  C 5.76602564102564 7.71003605769231  4.92307692307692 9.421875  4.92307692307692 11.4230769230769  C 4.92307692307692 13.4242788461538  5.76602564102564 15.1361177884615  7.45192307692308 16.55859375  C 9.13782051282051 17.9810697115385  11.1666666666667 18.6923076923077  13.5384615384615 18.6923076923077  C 15.9102564102564 18.6923076923077  17.9391025641026 17.9810697115385  19.625 16.55859375  Z M 31.2884615384615 23.4627403846154  C 31.7628205128205 23.8629807692308  32 24.3497596153846  32 24.9230769230769  C 32 25.4855769230769  31.7564102564103 25.9723557692308  31.2692307692308 26.3834134615385  C 30.7820512820513 26.7944711538462  30.2051282051282 27  29.5384615384615 27  C 28.8461538461538 27  28.2692307692308 26.7944711538462  27.8076923076923 26.3834134615385  L 21.2115384615385 20.8341346153846  C 18.9166666666667 22.1754807692308  16.3589743589744 22.8461538461538  13.5384615384615 22.8461538461538  C 11.7051282051282 22.8461538461538  9.95192307692308 22.5459735576923  8.27884615384615 21.9456129807692  C 6.60576923076923 21.3452524038462  5.16346153846154 20.5339543269231  3.95192307692308 19.51171875  C 2.74038461538462 18.4894831730769  1.77884615384615 17.2725360576923  1.06730769230769 15.8608774038462  C 0.355769230769231 14.44921875  0 12.9699519230769  0 11.4230769230769  C 0 9.87620192307692  0.355769230769231 8.39693509615385  1.06730769230769 6.98527644230769  C 1.77884615384615 5.57361778846154  2.74038461538462 4.35667067307692  3.95192307692308 3.33443509615385  C 5.16346153846154 2.31219951923077  6.60576923076923 1.50090144230769  8.27884615384615 0.900540865384616  C 9.95192307692308 0.300180288461538  11.7051282051282 0  13.5384615384615 0  C 15.3717948717949 0  17.125 0.300180288461538  18.7980769230769 0.900540865384616  C 20.4711538461538 1.50090144230769  21.9134615384615 2.31219951923077  23.125 3.33443509615385  C 24.3365384615385 4.35667067307692  25.2980769230769 5.57361778846154  26.0096153846154 6.98527644230769  C 26.7211538461538 8.39693509615385  27.0769230769231 9.87620192307692  27.0769230769231 11.4230769230769  C 27.0769230769231 13.8028846153846  26.2820512820513 15.9609375  24.6923076923077 17.8972355769231  L 31.2884615384615 23.4627403846154  Z " fill-rule="nonzero" fill="#000000" stroke="none" transform="matrix(1 0 0 1 853 262 )" />
  </g>
</svg>