<?xml version="1.0" encoding="utf-8"?>
<svg version="1.1" xmlns:xlink="http://www.w3.org/1999/xlink" width="12px" height="12px" viewBox="2227 1366  12 12" xmlns="http://www.w3.org/2000/svg">
  <path d="M 2233 1366  C 2236.36 1366  2239 1368.64  2239 1372  C 2239 1375.36  2236.36 1378  2233 1378  C 2229.64 1378  2227 1375.36  2227 1372  C 2227 1368.64  2229.64 1366  2233 1366  Z " fill-rule="nonzero" fill="#ffffff" stroke="none" />
  <path d="M 2233 1366.5  C 2236.08 1366.5  2238.5 1368.92  2238.5 1372  C 2238.5 1375.08  2236.08 1377.5  2233 1377.5  C 2229.92 1377.5  2227.5 1375.08  2227.5 1372  C 2227.5 1368.92  2229.92 1366.5  2233 1366.5  Z " stroke-width="1" stroke="#797979" fill="none" />
  <path d="M 2233 1375  C 2231.32 1375  2230 1373.68  2230 1372  C 2230 1370.32  2231.32 1369  2233 1369  C 2234.68 1369  2236 1370.32  2236 1372  C 2236 1373.68  2234.68 1375  2233 1375  " fill-rule="nonzero" fill="#797979" stroke="none" />
</svg>