<?xml version="1.0" encoding="utf-8"?>
<svg version="1.1" xmlns:xlink="http://www.w3.org/1999/xlink" width="12px" height="12px" viewBox="1760 1331  12 12" xmlns="http://www.w3.org/2000/svg">
  <path d="M 1766 1331  C 1769.36 1331  1772 1333.64  1772 1337  C 1772 1340.36  1769.36 1343  1766 1343  C 1762.64 1343  1760 1340.36  1760 1337  C 1760 1333.64  1762.64 1331  1766 1331  Z " fill-rule="nonzero" fill="#ffffff" stroke="none" />
  <path d="M 1766 1331.5  C 1769.08 1331.5  1771.5 1333.92  1771.5 1337  C 1771.5 1340.08  1769.08 1342.5  1766 1342.5  C 1762.92 1342.5  1760.5 1340.08  1760.5 1337  C 1760.5 1333.92  1762.92 1331.5  1766 1331.5  Z " stroke-width="1" stroke="#797979" fill="none" />
  <path d="M 1766 1340  C 1764.32 1340  1763 1338.68  1763 1337  C 1763 1335.32  1764.32 1334  1766 1334  C 1767.68 1334  1769 1335.32  1769 1337  C 1769 1338.68  1767.68 1340  1766 1340  " fill-rule="nonzero" fill="#797979" stroke="none" />
</svg>