<?xml version="1.0" encoding="utf-8"?>
<svg version="1.1" xmlns:xlink="http://www.w3.org/1999/xlink" width="12px" height="12px" viewBox="2342 1366  12 12" xmlns="http://www.w3.org/2000/svg">
  <path d="M 2348 1366  C 2351.36 1366  2354 1368.64  2354 1372  C 2354 1375.36  2351.36 1378  2348 1378  C 2344.64 1378  2342 1375.36  2342 1372  C 2342 1368.64  2344.64 1366  2348 1366  Z " fill-rule="nonzero" fill="#f0f0f0" stroke="none" />
  <path d="M 2348 1366.5  C 2351.08 1366.5  2353.5 1368.92  2353.5 1372  C 2353.5 1375.08  2351.08 1377.5  2348 1377.5  C 2344.92 1377.5  2342.5 1375.08  2342.5 1372  C 2342.5 1368.92  2344.92 1366.5  2348 1366.5  Z " stroke-width="1" stroke="#797979" fill="none" />
  <path d="M 2348 1375  C 2346.32 1375  2345 1373.68  2345 1372  C 2345 1370.32  2346.32 1369  2348 1369  C 2349.68 1369  2351 1370.32  2351 1372  C 2351 1373.68  2349.68 1375  2348 1375  " fill-rule="nonzero" fill="#797979" stroke="none" />
</svg>