<?xml version="1.0" encoding="utf-8"?>
<svg version="1.1" xmlns:xlink="http://www.w3.org/1999/xlink" width="12px" height="12px" viewBox="1875 1331  12 12" xmlns="http://www.w3.org/2000/svg">
  <path d="M 1881 1331  C 1884.36 1331  1887 1333.64  1887 1337  C 1887 1340.36  1884.36 1343  1881 1343  C 1877.64 1343  1875 1340.36  1875 1337  C 1875 1333.64  1877.64 1331  1881 1331  Z " fill-rule="nonzero" fill="#f0f0f0" stroke="none" />
  <path d="M 1881 1331.5  C 1884.08 1331.5  1886.5 1333.92  1886.5 1337  C 1886.5 1340.08  1884.08 1342.5  1881 1342.5  C 1877.92 1342.5  1875.5 1340.08  1875.5 1337  C 1875.5 1333.92  1877.92 1331.5  1881 1331.5  Z " stroke-width="1" stroke="#797979" fill="none" />
  <path d="M 1881 1340  C 1879.32 1340  1878 1338.68  1878 1337  C 1878 1335.32  1879.32 1334  1881 1334  C 1882.68 1334  1884 1335.32  1884 1337  C 1884 1338.68  1882.68 1340  1881 1340  " fill-rule="nonzero" fill="#797979" stroke="none" />
</svg>