<?xml version="1.0" encoding="utf-8"?>
<svg version="1.1" xmlns:xlink="http://www.w3.org/1999/xlink" width="12px" height="12px" viewBox="1787 570  12 12" xmlns="http://www.w3.org/2000/svg">
  <path d="M 1793 570  C 1796.36 570  1799 572.64  1799 576  C 1799 579.36  1796.36 582  1793 582  C 1789.64 582  1787 579.36  1787 576  C 1787 572.64  1789.64 570  1793 570  Z " fill-rule="nonzero" fill="#f0f0f0" stroke="none" />
  <path d="M 1793 570.5  C 1796.08 570.5  1798.5 572.92  1798.5 576  C 1798.5 579.08  1796.08 581.5  1793 581.5  C 1789.92 581.5  1787.5 579.08  1787.5 576  C 1787.5 572.92  1789.92 570.5  1793 570.5  Z " stroke-width="1" stroke="#797979" fill="none" />
  <path d="M 1793 579  C 1791.32 579  1790 577.68  1790 576  C 1790 574.32  1791.32 573  1793 573  C 1794.68 573  1796 574.32  1796 576  C 1796 577.68  1794.68 579  1793 579  " fill-rule="nonzero" fill="#797979" stroke="none" />
</svg>