<?xml version="1.0" encoding="utf-8"?>
<svg version="1.1" xmlns:xlink="http://www.w3.org/1999/xlink" width="12px" height="12px" viewBox="2419 567  12 12" xmlns="http://www.w3.org/2000/svg">
  <path d="M 2425 567  C 2428.36 567  2431 569.64  2431 573  C 2431 576.36  2428.36 579  2425 579  C 2421.64 579  2419 576.36  2419 573  C 2419 569.64  2421.64 567  2425 567  Z " fill-rule="nonzero" fill="#ffffff" stroke="none" />
  <path d="M 2425 567.5  C 2428.08 567.5  2430.5 569.92  2430.5 573  C 2430.5 576.08  2428.08 578.5  2425 578.5  C 2421.92 578.5  2419.5 576.08  2419.5 573  C 2419.5 569.92  2421.92 567.5  2425 567.5  Z " stroke-width="1" stroke="#797979" fill="none" />
  <path d="M 2425 576  C 2423.32 576  2422 574.68  2422 573  C 2422 571.32  2423.32 570  2425 570  C 2426.68 570  2428 571.32  2428 573  C 2428 574.68  2426.68 576  2425 576  " fill-rule="nonzero" fill="#797979" stroke="none" />
</svg>