<?xml version="1.0" encoding="utf-8"?>
<svg version="1.1" xmlns:xlink="http://www.w3.org/1999/xlink" width="517px" height="10px" preserveAspectRatio="xMinYMid meet" viewBox="793 346  517 8" xmlns="http://www.w3.org/2000/svg">
  <path d="M 292 204  L 798 204  L 798 350  L 1304 350  " stroke-width="2" stroke-dasharray="6,2" stroke="#000000" fill="none" />
  <path d="M 289.5 200.5  A 3.5 3.5 0 0 0 286 204 A 3.5 3.5 0 0 0 289.5 207.5 A 3.5 3.5 0 0 0 293 204 A 3.5 3.5 0 0 0 289.5 200.5 Z M 289.5 202.5  A 1.5 1.5 0 0 1 291 204 A 1.5 1.5 0 0 1 289.5 205.5 A 1.5 1.5 0 0 1 288 204 A 1.5 1.5 0 0 1 289.5 202.5 Z M 1303 357.6  L 1310 350  L 1303 342.4  L 1303 357.6  Z M 1305 352.8  L 1305 347.2  L 1307 350  L 1305 352.8  Z " fill-rule="nonzero" fill="#000000" stroke="none" />
</svg>