<?xml version="1.0" encoding="utf-8"?>
<svg version="1.1" xmlns:xlink="http://www.w3.org/1999/xlink" width="56px" height="28px" xmlns="http://www.w3.org/2000/svg">
  <g transform="matrix(1 0 0 1 -367 -274 )">
    <path d="M 367 274  L 423 274  L 423 302  L 367 302  L 367 274  " fill-rule="nonzero" fill="#cccccc" stroke="none" />
    <path d="M 369 276  L 421 276  L 421 300  L 369 300  L 369 276  " fill-rule="nonzero" fill="#ffffff" stroke="none" />
    <path d="M 398.22 282.4  C 397.044 282.4  396.12 281.476  396.12 280.3  C 396.12 279.124  397.044 278.2  398.22 278.2  C 399.396 278.2  400.32 279.124  400.32 280.3  C 400.32 281.476  399.396 282.4  398.22 282.4  " fill-rule="nonzero" fill="#cccccc" stroke="none" />
    <path d="M 370 300  L 370 287.35  L 382.75 281.6  L 400.6 293.1  L 410.8 285.05  L 421 293.1  L 421 300  L 370 300  " fill-rule="nonzero" fill="#169bd5" stroke="none" />
  </g>
</svg>